<svg width="119" height="45" viewBox="0 0 94 35" fill="none" xmlns="http://www.w3.org/2000/svg">
<g clip-path="url(#clip0)">
<path d="M16.2843 0.00253584C17.1745 0.00253584 18.0591 -0.0031698 18.9493 0.00253584C19.6404 0.00824148 20.1657 0.379108 20.3979 1.01814C22.0179 5.45713 23.6324 9.89612 25.2468 14.3351C26.513 17.8212 27.7847 21.3017 29.0398 24.7878C30.0682 27.6349 31.08 30.4821 32.0918 33.3349C32.1747 33.5688 32.2245 33.8142 32.2632 34.0595C32.3406 34.6072 32.1084 34.9439 31.5776 35.0352C31.3232 35.0808 31.0578 35.1036 30.798 35.1036C29.2664 35.1036 27.7294 35.0922 26.1978 35.0808C25.4182 35.0751 24.9649 34.7613 24.6663 33.9112C24.1023 32.3079 23.5605 30.6989 23.0297 29.0842C22.5155 27.5208 22.2612 27.2698 20.6467 27.2527C17.4178 27.2127 14.1833 27.2241 10.9543 27.2413C10.0531 27.247 9.59972 27.6349 9.30115 28.5079C8.66531 30.3508 8.02395 32.188 7.37705 34.0253C7.17248 34.6015 6.77992 35.0066 6.17725 35.018C4.36373 35.0466 2.55022 35.0523 0.736698 35.0123C0.134034 35.0009 -0.0650103 34.6643 0.017925 34.0367C0.0676862 33.6886 0.156151 33.3406 0.277789 33.0097C3.20817 25.0161 6.14408 17.0225 9.08552 9.02886C10.042 6.42709 11.0151 3.82531 11.9772 1.22354C12.2813 0.396225 12.7015 0.0538866 13.5585 0.0367697C14.4653 0.0139471 15.3775 0.031064 16.2843 0.031064C16.2843 0.0253584 16.2843 0.0139471 16.2843 0.00253584ZM15.8807 21.5413C15.8807 21.547 15.8807 21.547 15.8807 21.5413C16.887 21.547 17.8988 21.587 18.9051 21.5356C20.0496 21.4786 20.3315 21.0335 19.9611 19.9095C18.9714 16.8969 17.9762 13.8901 16.9423 10.8946C16.8096 10.5066 16.4557 9.95888 16.1571 9.91894C15.6263 9.85047 15.4218 10.4667 15.2559 10.9345C14.9905 11.6763 14.7638 12.4294 14.5095 13.1712C13.7354 15.4477 12.9337 17.7128 12.1873 19.9951C11.8334 21.0792 12.1541 21.5071 13.2765 21.5356C14.1446 21.5641 15.0126 21.5413 15.8807 21.5413Z" fill="#8B8B8B"/>
<path d="M82.6994 35.0758C79.4704 35.0758 76.2359 35.0758 73.007 35.0758C71.7132 35.0758 71.4312 34.7905 71.4202 33.4725C71.4091 32.6794 71.4146 31.8863 71.398 31.099C71.387 30.2888 71.6468 29.5756 72.1555 28.9765C73.2005 27.7326 74.2731 26.523 75.3347 25.2906C76.9271 23.442 78.5194 21.5934 80.1173 19.7447C81.0407 18.6721 81.9861 17.6165 82.8763 16.5153C83.103 16.2358 83.3407 15.7907 83.2744 15.494C83.2191 15.2487 82.7436 15.0262 82.4174 14.9406C82.0359 14.8379 81.6157 14.8778 81.2121 14.8778C78.7682 14.8778 76.3244 14.8892 73.8806 14.8949C72.7416 14.8949 72.4154 14.564 72.3877 13.3715C72.3711 12.5613 72.3546 11.7511 72.3822 10.9352C72.4043 10.1935 72.6974 9.8911 73.4051 9.7884C73.7036 9.74275 74.0077 9.71422 74.3063 9.71422C79.7413 9.70852 85.1708 9.70852 90.6059 9.71422C91.0482 9.71422 91.496 9.73134 91.9384 9.75416C92.5963 9.7941 93.0552 10.2277 93.0718 10.8953C93.105 11.9965 93.1548 13.1091 93.0718 14.2046C93.0331 14.6838 92.7898 15.2259 92.4802 15.591C89.9866 18.5408 87.4543 21.4507 84.9442 24.3777C83.8218 25.69 82.7104 27.008 81.5991 28.3317C81.4553 28.5029 81.3337 28.7026 81.2508 28.9137C81.0959 29.3131 81.2231 29.6269 81.6433 29.7182C82.0746 29.8095 82.5169 29.8951 82.9537 29.8951C86.0444 29.9122 89.1351 29.9008 92.2203 29.9065C92.4636 29.9065 92.7069 29.9122 92.9447 29.935C93.5418 30.0035 93.9399 30.3458 93.9675 30.9734C94.0062 31.9719 94.0173 32.9761 93.962 33.9689C93.9178 34.7677 93.5252 35.0644 92.635 35.0701C90.534 35.0815 88.433 35.0758 86.3319 35.0758C85.1211 35.0758 83.9102 35.0758 82.6994 35.0758Z" fill="#8B8B8B"/>
<path d="M53.9706 35.0302C53.0417 35.0302 52.1129 35.0245 51.184 35.0302C50.5039 35.0359 50.0561 34.6594 49.7022 34.1059C48.5909 32.3714 47.4685 30.6369 46.3571 28.8967C46.2687 28.7597 46.1913 28.6114 46.0917 28.4802C45.4449 27.6072 44.903 27.6015 44.3059 28.4973C43.1669 30.2147 42.0003 31.915 40.9276 33.6837C40.325 34.6765 39.5786 35.1386 38.4396 35.0873C36.9523 35.0245 35.4539 35.0702 33.9666 35.0302C33.281 35.0131 33.0045 34.4825 33.3418 33.8606C33.657 33.2843 34.0495 32.748 34.4144 32.2002C36.416 29.1705 38.4119 26.1409 40.4134 23.1112C41.182 21.9415 41.182 21.5079 40.4024 20.3496C39.0865 18.404 37.7595 16.4584 36.4547 14.5071C35.6751 13.3431 34.9121 12.162 34.1656 10.9753C33.7565 10.3305 33.9777 9.7999 34.7296 9.78279C36.5818 9.73714 38.4451 9.72003 40.2973 9.83414C40.7618 9.86267 41.3147 10.3591 41.6243 10.787C42.5587 12.0936 43.3936 13.4686 44.2616 14.8266C44.9472 15.8935 45.6052 15.8878 46.2908 14.8095C47.1478 13.4686 48.0269 12.1506 48.8673 10.7984C49.3262 10.051 49.9842 9.72003 50.7969 9.71432C52.3119 9.70291 53.8268 9.71432 55.3418 9.75426C56.2873 9.77708 56.5582 10.2735 56.0219 11.0837C54.1144 13.9536 52.1737 16.795 50.244 19.6421C50.0339 19.9502 49.8349 20.264 49.6193 20.5607C49.0829 21.3139 49.2046 22.01 49.6967 22.7403C51.947 26.0724 54.1807 29.4159 56.42 32.7537C56.6854 33.1474 56.9507 33.5411 57.1664 33.969C57.4428 34.5167 57.1774 34.9903 56.5803 35.0131C55.7067 35.0474 54.8387 35.0245 53.9706 35.0302C53.9706 35.0245 53.9706 35.0302 53.9706 35.0302Z" fill="#8B8B8B"/>
<path d="M67.5223 22.4377C67.5223 26.192 67.5278 29.9406 67.5167 33.695C67.5167 34.6307 67.091 35.0871 66.1898 35.0928C64.7964 35.0985 63.4031 35.0643 62.0154 35.0301C61.3298 35.013 60.987 34.6763 60.904 33.9688C60.8709 33.6778 60.8708 33.3869 60.8708 33.0959C60.8708 25.844 60.8708 18.5864 60.8708 11.3289C60.8708 10.1136 61.1362 9.79404 62.3029 9.74839C63.5303 9.70275 64.7633 9.67992 65.9962 9.71416C67.3287 9.7541 67.5444 10.0337 67.5444 11.4258C67.5444 15.0946 67.5444 18.7633 67.5444 22.432H67.5223V22.4377Z" fill="#8B8B8B"/>
<path d="M71.8902 1.11012C71.5695 1.32123 71.4147 1.44104 71.2433 1.53233C68.0641 3.30108 64.8849 5.06412 61.7002 6.82146C61.5012 6.92987 61.2579 6.94698 61.0367 7.00975C61.0478 6.7587 61.0202 6.49624 61.081 6.2566C61.175 5.89715 61.3519 5.56051 61.4514 5.20106C61.5786 4.71608 61.855 4.4365 62.3139 4.24822C63.663 3.69477 64.9955 3.09568 66.328 2.5137C66.505 2.43383 66.6708 2.33112 66.8422 2.23983C66.8312 2.18278 66.8201 2.12572 66.809 2.06866C65.4047 2.2056 64.0003 2.34254 62.4301 2.49659C62.7563 1.63504 62.983 0.956065 63.276 0.305622C63.3423 0.162981 63.6409 0.0488687 63.8289 0.0659856C64.6527 0.117336 65.471 0.214332 66.2893 0.311328C67.9701 0.511025 69.6454 0.716428 71.3207 0.927537C71.4479 0.938948 71.5695 1.00171 71.8902 1.11012Z" fill="#8B8B8B"/>
</g>
<defs>
<clipPath id="clip0">
<rect width="119" height="45" fill="white"/>
</clipPath>
</defs>
</svg>
