<?xml version="1.0" encoding="UTF-8" standalone="no"?>
<svg
   xmlns:dc="http://purl.org/dc/elements/1.1/"
   xmlns:cc="http://creativecommons.org/ns#"
   xmlns:rdf="http://www.w3.org/1999/02/22-rdf-syntax-ns#"
   xmlns:svg="http://www.w3.org/2000/svg"
   xmlns="http://www.w3.org/2000/svg"
   xmlns:sodipodi="http://sodipodi.sourceforge.net/DTD/sodipodi-0.dtd"
   xmlns:inkscape="http://www.inkscape.org/namespaces/inkscape"
   inkscape:version="1.0 (4035a4fb49, 2020-05-01)"
   sodipodi:docname="kohde-clients-showcase-continual.svg"
   id="svg22"
   version="1.1"
   fill="none"
   viewBox="0 0 220 22.742964"
   height="23.25985"
   width="119">
  <metadata
     id="metadata28">
    <rdf:RDF>
      <cc:Work
         rdf:about="">
        <dc:format>image/svg+xml</dc:format>
        <dc:type
           rdf:resource="http://purl.org/dc/dcmitype/StillImage" />
      </cc:Work>
    </rdf:RDF>
  </metadata>
  <defs
     id="defs26" />
  <sodipodi:namedview
     inkscape:current-layer="svg22"
     inkscape:window-maximized="1"
     inkscape:window-y="-9"
     inkscape:window-x="-9"
     inkscape:cy="-2.6720153"
     inkscape:cx="58.839943"
     inkscape:zoom="11.313709"
     showgrid="false"
     id="namedview24"
     inkscape:window-height="1001"
     inkscape:window-width="1920"
     inkscape:pageshadow="2"
     inkscape:pageopacity="0"
     guidetolerance="10"
     gridtolerance="10"
     objecttolerance="10"
     borderopacity="1"
     bordercolor="#666666"
     pagecolor="#ffffff" />
  <path
     id="path2"
     fill="#8b8b8b"
     d="m -0.00720233,-1.1371394 c -0.004183,-0.29711 0.004183,-0.58998 0.0250963,-0.8871 0.0250964,-0.29711 0.062741,-0.58998 0.112934,-0.87861 0.054375,-0.29287 0.117116,-0.5815 0.200771,-0.86588 0.079471,-0.28438 0.175674,-0.56452 0.284425,-0.84041 0.10875101,-0.27589 0.23005001,-0.5433 0.36389705,-0.80646 0.13385098,-0.26316 0.28442098,-0.51783 0.44337098,-0.76401 0.15894,-0.24618 0.33462,-0.48387 0.51866,-0.71308 0.18404,-0.2292 0.38062,-0.44991 0.58558,-0.65789 0.20495,-0.20799 0.42245,-0.40748 0.64832,-0.59424 0.22587,-0.18675 0.4601,-0.36078 0.7027,-0.52631 0.2426,-0.1613 0.49356,-0.3141 0.74871,-0.44992 0.25933,-0.135826 0.52284,-0.263162 0.79053,-0.373519 0.27188,-0.110357 0.54376,-0.207981 0.824,-0.288626 0.28024,-0.08065 0.56049,-0.148558 0.84909,-0.203736 0.28443,-0.05518 0.57304,-0.09338 0.86583,-0.1146016 0.29279,-0.02122 0.5814,-0.03396 0.87001,-0.02547 0.61904,-0.02971 1.22973,0.01273 1.84043,0.114602 0.6106,0.1061116 1.2004,0.2758916 1.7734,0.5093396 0.5731,0.233448 1.1168,0.526318 1.6271,0.878608 0.5145,0.34805 0.983,0.74704 1.4138,1.2012 l -2.4218,2.83109 c -0.5689,-0.60697 -1.2339,-1.08235 -1.9868,-1.42191 -0.7529,-0.33956 -1.54344,-0.52208 -2.36743,-0.54754 -0.3388,0.0085 -0.67342,0.04668 -1.00386,0.12309 -0.33043,0.0764 -0.6525,0.18251 -0.96203,0.32258 -0.30952,0.14007 -0.60231,0.30985 -0.87837,0.51358 -0.27606,0.1995 -0.5312,0.4287 -0.76125,0.67912 -0.23005,0.25043 -0.43501,0.52632 -0.61487,0.81919 -0.17567,0.29288 -0.32625,0.60272 -0.43918,0.92955 -0.11712,0.32258 -0.20077,0.6579 -0.25097,0.99746 -0.05019,0.33956 -0.06692,0.68337 -0.05019,1.03141 -0.01673,0.34380901 0,0.68761931 0.05019,1.03143931 0.0502,0.3395 0.13385,0.6749 0.25097,0.99739999 0.11711,0.3226 0.26351,0.6325 0.43918,0.9296 0.17568,0.2929 0.38063,0.5687 0.61487,0.8192 0.23005,0.2546 0.48519,0.4796 0.76125,0.6791 0.27606,0.1995 0.56885,0.3735 0.87837,0.5136 0.30953,0.1401 0.6316,0.2504 0.96203,0.3226 0.33044,0.0721 0.66506,0.1146 1.00386,0.1231 0.84909,0.0042 1.66053,-0.1656 2.44273,-0.5094 0.778,-0.3438 1.4598,-0.8277 2.0412,-1.4559 l 2.4217,2.4661 c -0.4224,0.5051 -0.8951,0.955 -1.4221,1.3498 -0.5228,0.3947 -1.0833,0.7258 -1.6814,0.9932 -0.5982,0.2674 -1.2172,0.4626 -1.8572,0.5857 -0.6399,0.1231 -1.28824,0.174 -1.94075,0.1486 -0.28861,0 -0.57303,-0.017 -0.86164,-0.051 -0.28443,-0.0297 -0.56885,-0.0764 -0.8491,-0.1358 -0.28024,-0.0594 -0.56048,-0.1316 -0.83236,-0.2207 -0.27606,-0.0849 -0.54375,-0.1868 -0.80727,-0.3014 -0.26351,-0.1146 -0.52284,-0.2419 -0.77798,-0.382 -0.25097,-0.14 -0.49775,-0.2928 -0.73616,-0.4541 -0.23842,-0.1656 -0.46847,-0.3396 -0.69015,-0.5263 -0.22169,-0.1868 -0.43082,-0.3863 -0.63578,-0.5943 -0.20495,-0.208 -0.39317,-0.4244 -0.57303,-0.6536 -0.17986,-0.2292 -0.35135,-0.4627 -0.51029,-0.7089 -0.15895,-0.2461 -0.30534,-0.4966 -0.43918998,-0.7555 -0.13384704,-0.2589 -0.25514604,-0.5221 -0.36389705,-0.7937 -0.108751,-0.2717 -0.204954,-0.5475 -0.284425,-0.8277 -0.083655,-0.2801 -0.150579,-0.5645 -0.204954,-0.85309999 -0.0543756,-0.2887 -0.0962029,-0.5773 -0.1212992,-0.87016 -0.0167309,-0.2758903 -0.0292791,-0.5645193 -0.0292791,-0.85738931 z" />
  <path
     id="path4"
     fill="#8b8b8b"
     d="m 41.259752,23.994111 c 0.0084,-0.3481 -0.0125,-0.6961 -0.0711,-1.0399 -0.0586,-0.3438 -0.1464,-0.6792 -0.2719,-1.0017 -0.1213,-0.3269 -0.276,-0.6367 -0.4601,-0.9296 -0.184,-0.2929 -0.3932,-0.5688 -0.6274,-0.8192 -0.2384,-0.2504 -0.4936,-0.4796 -0.7738,-0.6791 -0.2802,-0.1995 -0.5772,-0.369301 -0.8909,-0.509301 -0.3137,-0.1401 -0.6358,-0.2462 -0.9704,-0.3226 -0.3346,-0.0764 -0.6734,-0.1146 -1.0164,-0.1189 -0.343,0 -0.686,0.034 -1.0206,0.1061 -0.3388,0.0722 -0.6651,0.1741 -0.9788,0.3141 -0.3137,0.1401 -0.6148,0.305601 -0.8992,0.505101 -0.2845,0.1995 -0.5438,0.4245 -0.778,0.6792 -0.2384,0.2546 -0.4476,0.5263 -0.6316,0.8234 -0.1841,0.2971 -0.3346,0.607 -0.4559,0.938 -0.1213,0.3269 -0.2092,0.6664 -0.2636,1.0102 -0.0543,0.3438 -0.0711,0.6919 -0.0585,1.0442 -0.0084,0.348 0.0125,0.6961 0.0711,1.0399 0.0586,0.3438 0.1464,0.6791 0.2719,1.0017 0.1213,0.3268 0.276,0.6366 0.4601,0.9295 0.184,0.2929 0.3931,0.5688 0.6274,0.8192 0.2384,0.2504 0.4935,0.4796 0.7738,0.6791 0.2802,0.1995 0.5772,0.3693 0.8909,0.5094 0.3137,0.14 0.6358,0.2462 0.9704,0.3226 0.3346,0.0764 0.6734,0.1146 1.0164,0.1188 0.343,0 0.686,-0.034 1.0206,-0.1061 0.3388,-0.0722 0.665,-0.174 0.9787,-0.3141 0.3179,-0.1358 0.6149,-0.3056 0.8993,-0.5051 0.2845,-0.1995 0.5438,-0.4245 0.778,-0.6791 0.2384,-0.2547 0.4476,-0.5263 0.6316,-0.8235 0.1841,-0.2971 0.3346,-0.6069 0.4559,-0.938 0.1213,-0.3268 0.2092,-0.6664 0.2635,-1.0102 0.0544,-0.348 0.0753,-0.6961 0.0586,-1.0441 z m -14.0372,0 c 0,-0.3014 0.0125,-0.5985 0.0376,-0.8999 0.0293,-0.2971 0.0711,-0.5942 0.1297,-0.8913 0.0585,-0.2929 0.1296,-0.5858 0.2133,-0.8744 0.0836,-0.2886 0.184,-0.5687 0.3012,-0.8446 0.1129,-0.2759 0.2425,-0.5476 0.3806,-0.8107 0.1422,-0.2632 0.2928,-0.517901 0.4601,-0.768301 0.1673,-0.2462 0.343,-0.4881 0.5354,-0.7173 0.1882,-0.2292 0.389,-0.4499 0.6023,-0.6579 0.2133,-0.208 0.4308,-0.4075 0.665,-0.5942 0.2301,-0.1868 0.4685,-0.3608 0.7195,-0.5221 0.2467,-0.1613 0.5019,-0.3099 0.7654,-0.4457 0.2635,-0.1358 0.5312,-0.2589 0.8073,-0.365 0.276,-0.1104 0.5563,-0.2038 0.8407,-0.2844 0.2844,-0.0806 0.573,-0.1443 0.8616,-0.1953 0.2928,-0.0509 0.5814,-0.0848 0.8784,-0.1061 0.2928,-0.0212 0.5898,-0.0254 0.8826,-0.0169 0.2928,-0.0085 0.5814,-0.0043 0.87,0.0127 0.2886,0.0212 0.5772,0.0552 0.8658,0.1019 0.2886,0.0466 0.5689,0.1146 0.8533,0.191 0.2844,0.0764 0.5563,0.1697 0.8282,0.2759 0.2718,0.1061 0.5353,0.2292 0.7947,0.3607 0.2593,0.1359 0.5103,0.2802 0.757,0.4415 0.2468,0.1613 0.4811,0.331 0.7111,0.5178 0.2259,0.1825 0.4476,0.3778 0.6567,0.5857 0.2091,0.208 0.4057,0.4245 0.5939,0.6494 0.1883,0.225 0.3639,0.4627 0.5271,0.7089 0.1631,0.2462 0.3137,0.496601 0.4517,0.759701 0.138,0.259 0.2635,0.5264 0.3765,0.8023 0.1129,0.2759 0.2091,0.5517 0.2969,0.8361 0.0837,0.2844 0.1548,0.5688 0.2133,0.8617 0.0544,0.2886 0.0962,0.5815 0.1255,0.8786 0.0293,0.2928 0.0419,0.59 0.0377,0.8871 0,0.2971 -0.0126,0.5984 -0.0419,0.8956 -0.0292,0.2971 -0.0711,0.5942 -0.1296,0.8828 -0.0586,0.2929 -0.1297,0.5815 -0.2175,0.8659 -0.0879,0.2844 -0.1882,0.5645 -0.3012,0.8404 -0.1129,0.2759 -0.2426,0.5433 -0.3848,0.8065 -0.1422,0.2631 -0.297,0.5136 -0.4601,0.7597 -0.1673,0.2462 -0.343,0.4839 -0.5354,0.7089 -0.1924,0.2249 -0.389,0.4456 -0.6023,0.6494 -0.2133,0.208 -0.4308,0.4032 -0.665,0.5857 -0.2301,0.1825 -0.4727,0.3566 -0.7195,0.5136 -0.2468,0.1613 -0.5019,0.3056 -0.7654,0.4372 -0.2635,0.1316 -0.5312,0.2504 -0.8073,0.3565 -0.276,0.1061 -0.5521,0.1953 -0.8365,0.2717 -0.2845,0.0764 -0.5689,0.14 -0.8617,0.1867 -0.2886,0.0467 -0.5814,0.0807 -0.8742,0.0977 -0.2927,0.0169 -0.5855,0.0169 -0.8783,0.0042 -0.2886,0.017 -0.5814,0.017 -0.87,0.0042 -0.2886,-0.0127 -0.5773,-0.0424 -0.8659,-0.0891 -0.2886,-0.0467 -0.5688,-0.1019 -0.8532,-0.1783 -0.2803,-0.0721 -0.5563,-0.1612 -0.8282,-0.2631 -0.2719,-0.1019 -0.5396,-0.2207 -0.7989,-0.3481 -0.2593,-0.1273 -0.5145,-0.2759 -0.7613,-0.4329 -0.2468,-0.1571 -0.4852,-0.3268 -0.711,-0.5093 -0.2301,-0.1826 -0.4476,-0.3736 -0.6567,-0.5773 -0.2092,-0.2037 -0.4099,-0.4202 -0.594,-0.6452 -0.1882,-0.2249 -0.3639,-0.4584 -0.527,-0.7045 -0.1631,-0.242 -0.3137,-0.4967 -0.4559,-0.7556 -0.138,-0.2589 -0.2635,-0.5263 -0.3765,-0.7979 -0.1129,-0.2717 -0.2091,-0.5518 -0.2928,-0.832 -0.0836,-0.2843 -0.1547,-0.5687 -0.2091,-0.8574 -0.0544,-0.2886 -0.0962,-0.5815 -0.1213,-0.8743 -0.0293,-0.2886 -0.0418,-0.5858 -0.0376,-0.8786 z" />
  <path
     id="path6"
     fill="#8b8b8b"
     d="m 35.935052,-8.7775394 h 4.8394 L 9.311962,31.634411 h -4.96071 z" />
  <path
     id="path8"
     fill="#8b8b8b"
     d="m 58.078652,15.36921 h 3.5093 l 7.8677,10.594301 V 15.36921 h 3.7478 v 17.249701 h -3.2584 l -8.1103,-10.9678 v 10.9678 h -3.7561 z" />
  <path
     id="path10"
     fill="#8b8b8b"
     d="m 89.662452,18.82001 h -5.2033 v -3.4508 h 14.0372 v 3.4508 h -5.082 v 13.798901 h -3.7519 z" />
  <path
     id="path12"
     fill="#8b8b8b"
     d="m 113.74576,15.36921 h -3.751 v 17.245501 h 3.751 z" />
  <path
     id="path14"
     fill="#8b8b8b"
     d="m 126.44976,15.36921 h 3.388 l 7.985,10.594301 V 15.36921 h 3.63 v 17.249701 h -3.137 l -8.231,-10.9678 v 10.9678 h -3.635 z" />
  <path
     id="path16"
     fill="#8b8b8b"
     d="M 153.79976,25.225011 V 15.36921 h 3.752 v 9.732701 c 0,2.8311 1.33,4.3124 3.631,4.3124 2.3,0 3.63,-1.354 3.63,-4.1893 V 15.36921 h 3.752 v 9.732701 c 0,5.174 -2.903,7.7632 -7.382,7.7632 -4.601,0 -7.387,-2.5892 -7.383,-7.6401 z" />
  <path
     id="path18"
     fill="#8b8b8b"
     d="m 189.85976,25.348211 -2.301,-5.5434 -2.3,5.5434 z m -3.873,-10.102001 h 3.383 l 7.262,17.368601 h -3.874 l -1.572,-3.8201 h -7.136 l -1.573,3.8201 h -3.747 z" />
  <path
     style="display:inline"
     id="path20"
     fill="#8b8b8b"
     d="m 207.76976,15.36921 h 3.752 v 13.798901 h 8.47 v 3.4508 h -12.222 z" />
</svg>
