<?xml version="1.0" encoding="UTF-8" standalone="no"?>
<svg
   xmlns:dc="http://purl.org/dc/elements/1.1/"
   xmlns:cc="http://creativecommons.org/ns#"
   xmlns:rdf="http://www.w3.org/1999/02/22-rdf-syntax-ns#"
   xmlns:svg="http://www.w3.org/2000/svg"
   xmlns="http://www.w3.org/2000/svg"
   xmlns:sodipodi="http://sodipodi.sourceforge.net/DTD/sodipodi-0.dtd"
   xmlns:inkscape="http://www.inkscape.org/namespaces/inkscape"
   inkscape:version="1.0 (4035a4fb49, 2020-05-01)"
   sodipodi:docname="kohde-clients-showcase-standardbank.svg"
   id="svg28"
   version="1.1"
   fill="none"
   viewBox="0 0 235.99999 22.134653"
   height="22.134653"
   width="118.49789">
  <metadata
     id="metadata34">
    <rdf:RDF>
      <cc:Work
         rdf:about="">
        <dc:format>image/svg+xml</dc:format>
        <dc:type
           rdf:resource="http://purl.org/dc/dcmitype/StillImage" />
      </cc:Work>
    </rdf:RDF>
  </metadata>
  <defs
     id="defs32" />
  <sodipodi:namedview
     inkscape:current-layer="svg28"
     inkscape:window-maximized="1"
     inkscape:window-y="-9"
     inkscape:window-x="-9"
     inkscape:cy="2.7524544"
     inkscape:cx="30.977506"
     inkscape:zoom="7.7187539"
     showgrid="false"
     id="namedview30"
     inkscape:window-height="1001"
     inkscape:window-width="1920"
     inkscape:pageshadow="2"
     inkscape:pageopacity="0"
     guidetolerance="10"
     gridtolerance="10"
     objecttolerance="10"
     borderopacity="1"
     bordercolor="#666666"
     pagecolor="#ffffff" />
  <path
     id="path2"
     fill="#8b8b8b"
     d="m 33.2371,12.316163 v 0.1078 c -0.5394,5.2814 -3.2364,9.4849 -7.0122,12.6106 l -5.3941,-10.4549 c -0.4315,-0.7545 -0.9709,-1.2934 -1.0788,-1.4012 1.6182,0.5389 3.668,1.8323 6.7965,1.8323 3.0207,0 5.6098,-1.8323 6.6886,-2.6946 z m -17.5846,15.7364 c -6.4728701,-3.1258 -11.2196401,-8.4071 -11.9748101,-15.6286 -0.21576,-2.0479 -0.10788,-5.7125003 0.10788,-9.3771003 L 16.5156,28.483663 c -0.2158,-0.1078 -0.5395,-0.2156 -0.8631,-0.4311 z M 8.7481099,-6.6536169 c 2.6969901,-0.43113 6.0413901,-0.75448 9.7092901,-0.75448 5.9335,0 11.0039,0.86226 13.9167,1.40118 0,0 0.1079,1.07783 0.1079,1.72453 -1.6182,0.86226 -3.668,1.83231 -6.4729,1.83231 -0.2158,0 -0.4315,0 -0.6473,0 -4.2074,-0.21557 -6.4729,-2.37123 -9.9251,-2.58679 -0.2157,0 -0.4315,0 -0.5394,0 -1.0788,0 -2.1576,0.10778 -3.1285,0.43113 z m -6.04135,-2.58679 c -0.97093,0.21556 -1.61822,1.07783 -1.726101,2.15566 -0.431525,4.31132 -1.294575,15.4130096 -0.86305,19.9398099 1.078811,10.1316 8.306851,16.5986 17.0451911,19.8321 0.4316,0.1078 0.8631,0.3234 1.2946,0.4312 0.1079,0 0.2158,-0.1078 0.3237,-0.1078 1.0788,-0.3234 2.1576,-0.7545 3.2364,-1.2934 L 6.1589599,0.89116314 4.6486199,-0.29443683 c -0.21576,-0.2155 -0.43153,-0.4311 -0.43153,-0.75445997 v -4.7424601 c 0,-0.21556 0.21577,-0.43113 0.43153,-0.43113 0.10788,0 0.21576,0 0.32364,0.10779 l 3.77585,2.91014 c 0.21576,0.21556 0.32364,0.43113 0.32364,0.75448 v 1.94014007 C 10.69,-1.3722469 12.6318,-1.9111669 14.5737,-1.9111669 c 0.2158,0 0.4315,0 0.6473,0 3.4522,0.21557 5.8256,2.47903007 10.0329,2.69463004 0.2158,0 0.4316,0 0.6473,0 3.0207,0 5.1783,-1.07789997 6.6887,-1.94013994 0.2157,2.4790399 0.3236,5.1735395 0.4315,7.5448395 v 2.3712 c -1.9419,1.5090003 -4.9626,2.9101003 -6.7965,2.9101003 -2.9128,0 -4.9626,-1.8323001 -7.6596,-1.8323001 -1.4025,0 -2.5892,0.4312001 -3.668,1.0779001 l 9.8172,19.1853 c 1.1867,-0.7545 2.3734,-1.5089 3.4522,-2.3712 4.4232,-3.5568 7.6596,-8.5149 8.3069,-14.9818 0.4315,-4.4191003 -0.4316,-15.6285699 -0.8631,-19.9398899 -0.1079,-1.07783 -0.7551,-1.9401 -1.7261,-2.15567 -2.3734,-0.43113 -8.4147,-1.6167401 -15.427,-1.6167401 -7.0123,0 -13.0536101,1.1856101 -15.7506401,1.7245301 z" />
  <path
     id="path4"
     fill="#8b8b8b"
     d="m 74.7712,19.968663 c -1.5319,0 -1.629,-1.0239 -1.629,-2.2419 V 9.7723629 h 4.0887 L 77.6408,7.1208627 H 73.153 v -4.8934 l -3.2688,0.7114 -0.5071,4.2898 -2.5568,0.4095 v 2.1449002 h 2.5568 v 7.4479001 c 0,2.0371 0.0971,3.7724 1.122,4.6886 0.6149,0.6144 1.629,0.9162 3.0638,0.9162 2.5568,0 4.1858,-0.9162 4.4879,-1.121 l -0.8199,-2.2419 c -0.2158,0.0862 -1.2407,0.4958 -2.4597,0.4958 z"
     clip-rule="evenodd"
     fill-rule="evenodd" />
  <path
     id="path6"
     fill="#8b8b8b"
     d="m 86.0017,6.8082627 c -2.8589,0 -5.5127,1.2287 -5.8256,1.3257 l 0.712,2.2420003 c 0.3021,-0.097 2.244,-0.6144001 3.8837,-0.6144001 2.244,0 2.4489,0.8192001 2.4489,2.5545001 v 0.8192 c -3.3658,0.2048 -8.2744,0.097 -8.2744,4.8934 0,3.2659 1.834,4.7964 4.1858,4.7964 2.3518,0 3.9807,-1.6275 4.2936,-2.0371 l 0.3021,1.7353 h 3.1609 v -9.5928 C 90.8024,9.5567627 90.6945,6.8082627 86.0017,6.8082627 Z m 1.219,12.0396003 c -0.302,0.2048 -1.2298,1.2287 -2.6538,1.2287 -1.0249,0 -2.039,-0.4096 -2.039,-2.1449 0,-2.0371 1.4348,-2.5545 4.5957,-2.7593 v 3.6755 z"
     clip-rule="evenodd"
     fill-rule="evenodd" />
  <path
     id="path8"
     fill="#8b8b8b"
     d="M 61.2861,10.074263 C 58.5243,9.1580627 56.7982,8.6407627 56.7982,6.8083627 c 0,-2.0371 1.7369,-2.9533 3.5709,-2.9533 2.3518,0 4.2937,0.7114 4.6928,0.9162 l 0.917,-2.6515 c -0.712,-0.3018 -3.1609,-1.22869956 -5.8256,-1.22869956 -4.4878,0 -7.2496,2.34969956 -7.2496,6.32689956 0,6.1222003 6.3326,5.6156003 8.8786,7.5449003 0.6149,0.5066 1.0249,1.121 1.0249,2.0372 0,1.8323 -1.5319,3.061 -3.9808,3.061 -2.6539,0 -4.4879,-1.0239 -4.8007,-1.2287 l -1.327,2.6515 c 0.205,0.2048 2.5568,1.6275 6.3327,1.6275 4.8978,0 7.6595,-2.5545 7.6595,-6.7365 -0.0971,-3.7617 -2.341,-5.0874 -5.4048,-6.1006 z"
     clip-rule="evenodd"
     fill-rule="evenodd" />
  <path
     id="path10"
     fill="#8b8b8b"
     d="m 214.758,6.8082627 c -2.147,0 -4.186,1.5306 -5.103,2.3497 l -0.302,-2.0371 h -3.269 V 22.426563 h 3.776 v -10.9296 c 0.615,-0.4096 2.039,-1.4336 3.474,-1.4336 1.737,0 1.834,1.2288 1.834,3.1582 v 9.2804 h 3.776 v -10.0026 c 0.108,-2.4252 0,-5.6911003 -4.186,-5.6911003 z"
     clip-rule="evenodd"
     fill-rule="evenodd" />
  <path
     id="path12"
     fill="#8b8b8b"
     d="m 197.918,6.8082627 c -2.859,0 -5.513,1.2287 -5.826,1.3257 l 0.712,2.2420003 c 0.302,-0.097 2.147,-0.6144001 3.884,-0.6144001 2.244,0 2.449,0.8192001 2.449,2.5545001 v 0.8192 c -3.366,0.2048 -8.274,0.097 -8.274,4.8934 0,3.2659 1.834,4.7964 4.185,4.7964 2.352,0 3.981,-1.6275 4.294,-2.0371 l 0.302,1.7353 h 3.161 v -9.5928 c -0.097,-3.3737003 -0.097,-6.1222003 -4.887,-6.1222003 z m 1.219,12.0396003 c -0.302,0.2048 -1.23,1.2287 -2.654,1.2287 -1.025,0 -2.039,-0.4096 -2.039,-2.1449 0,-2.0371 1.435,-2.5545 4.693,-2.7593 z"
     clip-rule="evenodd"
     fill-rule="evenodd" />
  <path
     id="path14"
     fill="#8b8b8b"
     d="m 102.853,6.8082627 c -2.147,0 -4.1859,1.5305 -5.1029,2.3497 l -0.3021,-2.0371 H 94.1792 V 22.426163 h 3.7759 v -11.0263 c 0.6149,-0.4096 2.0389,-1.4335 3.4739,-1.4335 1.737,0 1.834,1.2287 1.834,3.158 v 9.2803 h 3.776 v -10.0024 c 0.097,-2.3281 0,-5.5940003 -4.186,-5.5940003 z"
     clip-rule="evenodd"
     fill-rule="evenodd" />
  <path
     id="path16"
     fill="#8b8b8b"
     d="m 183.818,11.399963 c 2.859,-0.5066 4.391,-2.2419003 4.391,-5.0982003 0,-5.30299961 -4.488,-5.30299961 -8.275,-5.30299961 h -5.825 V 22.426163 h 5.103 c 3.678,0 4.8,-0.097 6.019,-0.6144 2.147,-0.9161 3.366,-2.6514 3.366,-5.2059 0.13,-3.1688 -1.607,-4.8071 -4.779,-5.2059 z m -5.815,-7.5557003 h 2.039 c 1.834,0 2.557,0.097 3.269,0.5066 0.712,0.4096 1.122,1.4335 1.122,2.4467 0,2.4467 -1.122,3.3628003 -4.801,3.3628003 h -1.629 z m 5.103,15.3053003 c -0.917,0.4096 -1.942,0.4096 -3.571,0.4096 h -1.434 v -6.7365 h 2.038 c 1.834,0 2.557,0.097 3.161,0.4096 0.917,0.5066 1.435,1.3257 1.435,2.7592 -0.097,1.7246 -0.712,2.6515 -1.629,3.1581 z"
     clip-rule="evenodd"
     fill-rule="evenodd" />
  <path
     id="path18"
     fill="#8b8b8b"
     d="m 229.775,14.461063 5.815,-7.2538003 h -3.981 l -5.415,6.7364003 V -0.13273683 l -3.776,0.5065 V 22.512463 h 3.776 v -7.243 l 5.415,7.243 H 236 Z"
     clip-rule="evenodd"
     fill-rule="evenodd" />
  <path
     id="path20"
     fill="#8b8b8b"
     d="M 160.85,0.37376317 V 8.6407627 c -1.025,-0.9161 -2.244,-1.8323 -4.185,-1.8323 -3.474,0 -5.513,2.9533002 -5.513,8.1592003 0,5.0012 2.244,7.8574 5.718,7.8574 2.448,0 3.98,-1.8323 4.293,-2.1448 l 0.205,1.8323 h 3.269 V -0.13273683 Z m 0,17.65499983 c -0.302,0.4096 -1.327,1.5305 -2.956,1.5305 -1.736,0 -2.761,-1.4335 -2.761,-4.6886 0,-3.4706 1.122,-4.7963 2.858,-4.7963 1.435,0 2.449,0.8191 2.859,1.1209 z"
     clip-rule="evenodd"
     fill-rule="evenodd" />
  <path
     id="path22"
     fill="#8b8b8b"
     d="M 119.802,0.37376317 V 8.6407627 c -1.025,-0.9161 -2.147,-1.8323 -4.186,-1.8323 -3.474,0 -5.513,2.9533002 -5.513,8.1592003 0,5.0012 2.244,7.8574 5.718,7.8574 2.449,0 3.981,-1.8323 4.293,-2.1448 l 0.302,1.8323 h 3.269 V -0.13273683 Z m 0,17.65499983 c -0.302,0.4096 -1.327,1.5305 -3.064,1.5305 -1.737,0 -2.762,-1.4335 -2.762,-4.6886 0,-3.4706 1.122,-4.7963 2.859,-4.7963 1.435,0 2.449,0.8191 2.859,1.1209 v 6.8335 z"
     clip-rule="evenodd"
     fill-rule="evenodd" />
  <path
     id="path24"
     fill="#8b8b8b"
     d="m 133.178,6.8082627 c -2.858,0 -5.512,1.2287 -5.825,1.3257 l 0.615,2.2420003 c 0.302,-0.097 2.244,-0.6144001 3.883,-0.6144001 2.147,0 2.449,0.8192001 2.449,2.5545001 v 0.8192 c -3.366,0.2048 -8.274,0.097 -8.274,4.8934 0,3.2659 1.834,4.7964 4.186,4.7964 2.351,0 3.98,-1.6275 4.293,-2.0371 l 0.302,1.7353 h 3.161 v -9.5928 c 0.011,-3.3737003 -0.097,-6.1222003 -4.79,-6.1222003 z M 134.3,18.847863 c -0.302,0.2048 -1.229,1.2287 -2.654,1.2287 -1.024,0 -2.038,-0.4096 -2.038,-2.1449 0,-2.0371 1.434,-2.5545 4.595,-2.7593 v 3.6755 z"
     clip-rule="evenodd"
     fill-rule="evenodd" />
  <path
     id="path26"
     fill="#8b8b8b"
     d="m 145.121,9.6645627 -0.302,-2.5545 H 141.55 V 22.415663 h 3.776 v -10.0995 c 0.615,-0.6144 2.039,-2.0372 5.21,-2.0372 V 6.8082627 c -3.171,0.097 -4.8,2.339 -5.415,2.8563 z"
     clip-rule="evenodd"
     fill-rule="evenodd" />
</svg>
