<svg width="332" height="71" viewBox="0 0 332 71" fill="none" xmlns="http://www.w3.org/2000/svg">
<g clip-path="url(#clip0)">
<path d="M71.403 24.002C70.617 23.0033 69.6868 22.127 68.643 21.402C67.6445 20.7084 66.566 20.1377 65.431 19.702C64.3309 19.2815 63.1921 18.9703 62.031 18.773C60.9351 18.5833 59.8252 18.4856 58.713 18.481C55.9449 18.4517 53.1941 18.9191 50.591 19.861C48.2024 20.7265 46.0165 22.0721 44.168 23.815C42.3357 25.5722 40.8973 27.6984 39.948 30.053C37.9305 35.3159 37.9305 41.139 39.948 46.402C40.897 48.7564 42.3354 50.8824 44.168 52.639C46.016 54.3827 48.2021 55.7287 50.591 56.594C53.1941 57.5358 55.9449 58.0032 58.713 57.974C61.3085 57.9712 63.8751 57.4291 66.25 56.382C68.6841 55.3264 70.7784 53.6176 72.301 51.445L65.401 46.296C64.5845 47.5398 63.4719 48.5614 62.163 49.269C60.7721 49.9962 59.2203 50.3611 57.651 50.33C56.2126 50.3415 54.7895 50.0341 53.484 49.43C52.1975 48.8327 51.0498 47.9738 50.114 46.908C49.1319 45.785 48.3669 44.4894 47.858 43.087C46.7607 39.9509 46.7607 36.5351 47.858 33.399C48.3651 31.9814 49.1402 30.6747 50.141 29.55C51.119 28.459 52.3186 27.5893 53.6595 26.9988C55.0004 26.4084 56.4519 26.1108 57.917 26.126C59.3295 26.0985 60.7317 26.3711 62.031 26.926C63.196 27.4416 64.2236 28.2236 65.031 29.209L71.403 24.002ZM22.568 57.019H30.849V26.762H41.572V19.437H11.845V26.762H22.568V57.019Z" fill="#808080"/>
<path d="M13.525 5.85498V6.99698H77.352V69.458H6.798V13.669H5.659V70.599H78.496V5.85498H13.525Z" fill="#808080"/>
<path d="M11.883 0.599976H0.600006V11.883H11.883V0.599976Z" fill="#808080"/>
<path d="M11.883 0.599976H0.600006V11.883H11.883V0.599976Z" stroke="white" stroke-width="1.2"/>
<path d="M331.575 24.7939V21.816H320.362V24.7939H324.246V42.4939H327.692V24.7939H331.575ZM320.216 40.2699L318.201 37.905C317.873 38.4087 317.452 38.8449 316.96 39.1899C316.441 39.5473 315.823 39.7314 315.193 39.7159C314.516 39.7299 313.854 39.5189 313.31 39.116C312.748 38.6855 312.293 38.1306 311.981 37.495C311.604 36.7339 311.339 35.9226 311.193 35.086C311.014 34.118 310.926 33.1353 310.93 32.1509C310.925 31.1569 311.013 30.1646 311.193 29.187C311.339 28.3504 311.605 27.5392 311.981 26.778C312.292 26.1457 312.741 25.5917 313.295 25.157C313.824 24.7559 314.472 24.5446 315.135 24.5569C315.756 24.5548 316.367 24.7121 316.91 25.0138C317.453 25.3155 317.909 25.7515 318.235 26.28L320.25 23.827C319.697 23.0189 318.942 22.3697 318.06 21.944C317.083 21.4883 316.014 21.2635 314.936 21.2869C313.838 21.2735 312.755 21.5494 311.797 22.0869C310.832 22.6416 310.008 23.4108 309.388 24.3349C308.685 25.3884 308.167 26.5537 307.855 27.7809C307.484 29.2059 307.302 30.6735 307.315 32.146C307.301 33.6138 307.483 35.077 307.855 36.497C308.169 37.7164 308.682 38.8757 309.373 39.9279C309.987 40.856 310.806 41.6304 311.767 42.191C312.731 42.7409 313.825 43.0233 314.935 43.0089C316.051 43.051 317.157 42.7886 318.135 42.25C318.972 41.7535 319.685 41.0747 320.223 40.2639L320.216 40.2699ZM305.029 42.4899V39.366H298.839V33.2659H304.299V30.4039H298.839V24.9139H304.739V21.814H295.482V42.4899H305.029ZM287.992 30.299C287.71 30.5661 287.377 30.7744 287.014 30.9117C286.65 31.0491 286.263 31.1127 285.875 31.099H283.889V24.7329H285.875C286.23 24.734 286.584 24.7831 286.926 24.879C287.294 24.9765 287.634 25.1595 287.918 25.4132C288.202 25.6669 288.423 25.9841 288.561 26.3389C288.751 26.8321 288.841 27.3585 288.824 27.8869C288.858 28.3241 288.801 28.7635 288.658 29.1779C288.515 29.5923 288.288 29.9728 287.992 30.2959V30.299ZM292.737 42.487L289.029 32.9699C289.432 32.8567 289.813 32.674 290.153 32.4299C290.555 32.1453 290.905 31.7946 291.19 31.3929C291.526 30.9146 291.787 30.3879 291.964 29.8309C292.179 29.1463 292.283 28.4315 292.271 27.7139C292.293 26.8087 292.144 25.9074 291.833 25.0569C291.57 24.3618 291.156 23.7334 290.621 23.217C290.093 22.7239 289.459 22.3591 288.767 22.1509C288 21.9201 287.203 21.8068 286.402 21.8149H280.502V42.4899H283.889V33.6709H285.845L289.057 42.4899L292.737 42.487ZM276.297 21.8129H272.797V42.4899H276.297V21.8129ZM265.629 35.3499C265.448 36.1541 265.126 36.92 264.68 37.6129C264.313 38.1789 263.811 38.6453 263.22 38.9709C262.654 39.273 262.022 39.4288 261.38 39.424H259.716V24.8799H261.38C262.022 24.8751 262.654 25.0308 263.22 25.3329C263.811 25.6592 264.312 26.1256 264.68 26.6909C265.128 27.3884 265.449 28.1596 265.629 28.9689C265.867 30.0226 265.98 31.1008 265.965 32.181C265.98 33.2466 265.867 34.3101 265.629 35.349V35.3499ZM267.41 24.549C266.703 23.6375 265.784 22.9125 264.733 22.4367C263.682 21.961 262.531 21.7489 261.38 21.819H256.18V42.4899H261.348C262.501 42.5632 263.655 42.3558 264.71 41.8856C265.765 41.4153 266.691 40.6963 267.407 39.7899C268.78 37.99 269.466 35.4543 269.466 32.183C269.466 28.9116 268.78 26.3663 267.407 24.547" fill="#808080"/>
<path d="M246.313 42.49V21.816H241.378L237.494 36.9419H237.377L233.406 21.816H228.706V42.49H231.889L231.831 26.605H231.919L235.978 42.49H238.723L242.869 26.605H242.957L242.899 42.49H246.313ZM221.213 30.299C220.931 30.5665 220.599 30.775 220.235 30.9124C219.872 31.0498 219.484 31.1132 219.096 31.099H217.113V24.7329H219.099C219.454 24.734 219.808 24.7831 220.15 24.879C220.498 24.9768 220.822 25.1472 221.099 25.379C221.402 25.6406 221.637 25.9712 221.785 26.3429C221.975 26.8362 222.065 27.3626 222.048 27.891C222.082 28.3281 222.025 28.7675 221.882 29.1819C221.739 29.5963 221.512 29.9768 221.216 30.2999L221.213 30.299ZM225.961 42.491L222.253 32.9699C222.656 32.8571 223.037 32.6744 223.377 32.43C223.779 32.1453 224.129 31.7947 224.414 31.393C224.751 30.9153 225.012 30.3884 225.188 29.831C225.403 29.1463 225.507 28.4315 225.495 27.714C225.517 26.8087 225.368 25.9074 225.057 25.057C224.794 24.3614 224.38 23.7329 223.845 23.217C223.317 22.7241 222.683 22.3593 221.991 22.1509C221.224 21.921 220.427 21.8077 219.626 21.8149H213.726V42.49H217.113V33.671H219.069L222.281 42.49L225.961 42.491ZM206.453 35.365H201.898L204.146 25.116H204.263L206.453 35.365ZM211.563 42.49L206.511 21.816H202.043L196.904 42.49H200.404L201.455 38.1099H206.886L207.908 42.49H211.563ZM194.744 42.49V21.816H191.269V30.197H185.079V21.816H181.604V42.49H185.079V33.321H191.269V42.49H194.744ZM179.124 40.271L177.109 37.906C176.781 38.4093 176.36 38.8454 175.868 39.191C175.349 39.5483 174.731 39.7324 174.101 39.717C173.424 39.7309 172.762 39.5198 172.218 39.117C171.655 38.687 171.2 38.132 170.889 37.4959C170.512 36.7349 170.247 35.9236 170.101 35.087C169.922 34.119 169.834 33.1364 169.838 32.152C169.833 31.1579 169.921 30.1656 170.101 29.188C170.247 28.3514 170.513 27.5402 170.889 26.779C171.2 26.1467 171.649 25.5927 172.203 25.158C172.732 24.7577 173.38 24.5464 174.043 24.558C174.664 24.556 175.275 24.7134 175.818 25.0151C176.361 25.3167 176.817 25.7526 177.143 26.281L179.158 23.828C178.604 23.0207 177.849 22.3717 176.968 21.945C175.991 21.4895 174.922 21.2647 173.844 21.288C172.746 21.2743 171.663 21.5502 170.705 22.088C169.74 22.6422 168.916 23.4114 168.296 24.336C167.593 25.3894 167.075 26.5547 166.763 27.782C166.391 29.2067 166.209 30.6745 166.223 32.1469C166.209 33.6149 166.39 35.0781 166.763 36.4979C167.075 37.7178 167.588 38.8772 168.281 39.9289C168.894 40.8574 169.714 41.6319 170.675 42.1919C171.651 42.7187 172.741 42.9994 173.851 43.0095C174.96 43.0196 176.055 42.7589 177.041 42.25C177.878 41.7536 178.591 41.0747 179.129 40.264L179.124 40.271ZM158.251 42.4829V39.359H152.053V33.2589H157.513V30.3969H152.053V24.907H157.953V21.807H148.698V42.49L158.251 42.4829ZM146.425 42.4829V39.242H140.726V21.816H137.193V42.49L146.425 42.4829ZM130.381 37.811C130.229 38.1801 130.002 38.5132 129.713 38.7889C129.434 39.0507 129.102 39.2498 128.74 39.3729C128.356 39.5027 127.953 39.5669 127.548 39.563H125.337V33.1099H127.453C127.827 33.1112 128.198 33.1703 128.553 33.285C128.946 33.4091 129.308 33.6155 129.615 33.8906C129.922 34.1656 130.167 34.5029 130.333 34.88C130.539 35.364 130.638 35.887 130.623 36.413C130.635 36.8913 130.551 37.3673 130.377 37.813L130.381 37.811ZM129.877 28.907C129.731 29.2508 129.513 29.5594 129.238 29.812C128.978 30.0451 128.671 30.2194 128.338 30.323C128.005 30.4295 127.657 30.4839 127.307 30.484H125.337V24.7309H127.253C127.616 24.7306 127.978 24.7797 128.328 24.877C128.664 24.9691 128.976 25.1336 129.242 25.359C129.516 25.6009 129.734 25.8999 129.881 26.2349C130.057 26.6554 130.141 27.1085 130.127 27.564C130.14 28.0239 130.056 28.4813 129.881 28.907H129.877ZM133.661 34.645C133.471 34.0986 133.195 33.5862 132.843 33.127C132.54 32.7356 132.167 32.404 131.743 32.1489C131.374 31.9275 130.976 31.7592 130.56 31.6489V31.591C131.326 31.2631 131.984 30.7267 132.46 30.043C133.05 29.1442 133.337 28.0797 133.278 27.006C133.314 26.1023 133.123 25.2039 132.723 24.393C132.39 23.7625 131.91 23.2216 131.323 22.816C130.756 22.436 130.122 22.1685 129.454 22.028C128.821 21.8875 128.175 21.8141 127.527 21.809H122.037V42.49H128.169C128.856 42.4866 129.538 42.3883 130.198 42.198C130.883 42.0072 131.52 41.6739 132.067 41.2199C132.646 40.7309 133.114 40.1236 133.439 39.439C133.825 38.5822 134.01 37.6483 133.979 36.709C133.991 36.0093 133.883 35.3127 133.658 34.65L133.661 34.645ZM114.765 35.365H110.212L112.46 25.116H112.577L114.765 35.365ZM119.875 42.49L114.823 21.816H110.353L105.218 42.49H108.718L109.769 38.1099H115.2L116.222 42.49H119.875ZM105.742 24.79V21.812H94.531V24.79H98.415V42.49H101.861V24.79H105.742Z" fill="#808080"/>
<path d="M327.526 59.4359H328.345V55.2769L331.573 49.7769H330.655L327.936 54.3599L325.279 49.7769H324.299L327.526 55.2769V59.4359ZM319.532 59.4359H320.351V50.6009H323.351V49.7819H316.522V50.6009H319.528L319.532 59.4359ZM314.466 49.7819H313.647V55.5089C313.645 55.8772 313.616 56.2448 313.561 56.6089C313.507 56.9886 313.392 57.357 313.22 57.6999C313.052 58.0328 312.805 58.3187 312.499 58.5319C312.122 58.746 311.697 58.8586 311.264 58.8586C310.83 58.8586 310.405 58.746 310.028 58.5319C309.723 58.3186 309.476 58.0326 309.309 57.6999C309.137 57.3573 309.021 56.9888 308.968 56.6089C308.912 56.2449 308.882 55.8773 308.88 55.5089V49.7819H308.061V55.7409C308.059 56.2411 308.114 56.7399 308.223 57.2279C308.319 57.6773 308.502 58.1034 308.763 58.4819C309.018 58.8489 309.359 59.1482 309.756 59.3539C310.23 59.5693 310.744 59.6807 311.265 59.6807C311.785 59.6807 312.299 59.5693 312.773 59.3539C313.17 59.1477 313.51 58.8485 313.766 58.4819C314.025 58.1026 314.208 57.6768 314.306 57.2279C314.415 56.7398 314.469 56.2411 314.467 55.7409L314.466 49.7819ZM303.914 56.0549H299.879L301.928 50.7639L303.914 56.0549ZM297.707 59.4369H298.563L299.556 56.8729H304.212L305.168 59.4369H306.088L302.388 49.7829H301.545L297.707 59.4369ZM290.619 59.4369H296.193V58.6189H291.438V54.8599H295.709V54.0409H291.438V50.6059H295.993V49.7869H290.618L290.619 59.4369ZM282.748 54.7739H284.748C285.007 54.7743 285.264 54.8114 285.513 54.8839C285.759 54.9538 285.988 55.0717 286.188 55.2309C286.394 55.3989 286.56 55.6107 286.673 55.8509C286.804 56.1375 286.867 56.4501 286.859 56.7649C286.856 56.9606 286.828 57.1551 286.777 57.3439C286.719 57.5677 286.611 57.7755 286.461 57.9519C286.276 58.1615 286.044 58.3246 285.784 58.4279C285.414 58.5693 285.019 58.6346 284.623 58.6199H282.749L282.748 54.7739ZM282.748 50.6019H284.56C284.806 50.6007 285.052 50.6282 285.292 50.6839C285.513 50.7323 285.721 50.8274 285.902 50.9629C286.082 51.103 286.225 51.2854 286.318 51.4939C286.493 51.9228 286.521 52.3974 286.398 52.8439C286.342 53.0403 286.239 53.2202 286.098 53.3679C285.923 53.5494 285.712 53.6912 285.478 53.7839C285.149 53.9098 284.799 53.9683 284.447 53.9559H282.747L282.748 50.6019ZM281.929 59.4369H284.734C285.058 59.4343 285.381 59.3977 285.698 59.3279C286.04 59.2558 286.364 59.1168 286.652 58.9189C286.958 58.7058 287.21 58.4231 287.386 58.0939C287.596 57.6738 287.697 57.2073 287.678 56.7379C287.681 56.4231 287.632 56.11 287.534 55.8109C287.449 55.5443 287.313 55.2965 287.134 55.0809C286.962 54.8773 286.752 54.7103 286.514 54.5899C286.266 54.4655 285.997 54.3895 285.72 54.3659V54.3389C286.189 54.2524 286.609 53.9947 286.899 53.6159C287.167 53.2434 287.308 52.7939 287.299 52.3349C287.318 51.8824 287.231 51.4317 287.044 51.0189C286.893 50.7092 286.667 50.4421 286.387 50.2419C286.113 50.0533 285.802 49.9274 285.474 49.8729C285.142 49.8147 284.805 49.7849 284.468 49.7839H281.928L281.929 59.4369Z" fill="#808080"/>
<path d="M274.865 49.129H273.896V59.683H274.865V49.129Z" fill="#808080"/>
<path d="M257.783 59.4369H263.357V58.6189H258.603V54.8559H262.874V54.0369H258.603V50.6019H263.158V49.7829H257.783V59.4369ZM250.706 59.4369H255.623V58.6189H251.523V49.7819H250.704L250.706 59.4369ZM244.66 59.4369H245.479V55.2779L248.707 49.7779H247.789L245.07 54.3609L242.413 49.7779H241.433L244.66 55.2779V59.4369ZM236.666 59.4369H237.485V50.6019H240.485V49.7829H233.656V50.6019H236.665L236.666 59.4369ZM226.398 58.2229C226.7 58.71 227.135 59.1001 227.652 59.3469C228.155 59.5725 228.701 59.6864 229.252 59.6809C229.603 59.6821 229.951 59.6222 230.281 59.5039C230.606 59.3907 230.904 59.2124 231.157 58.9799C231.413 58.7401 231.618 58.4501 231.757 58.1279C231.911 57.7613 231.987 57.3666 231.98 56.9689C232.007 56.4753 231.891 55.9844 231.644 55.5559C231.433 55.2259 231.145 54.9515 230.806 54.7559C230.462 54.5614 230.095 54.4084 229.715 54.2999C229.342 54.1931 228.976 54.0594 228.622 53.8999C228.3 53.7608 228.014 53.5513 227.784 53.2869C227.541 52.9696 227.422 52.5748 227.448 52.1759C227.442 51.9006 227.498 51.6274 227.61 51.3759C227.711 51.1591 227.856 50.9662 228.037 50.8099C228.222 50.6568 228.435 50.5416 228.665 50.4709C228.91 50.392 229.165 50.3525 229.422 50.3539C229.766 50.3454 230.107 50.4278 230.409 50.5929C230.704 50.7702 230.953 51.0153 231.135 51.3079L231.841 50.7499C231.581 50.3465 231.214 50.0232 230.781 49.8159C230.361 49.6279 229.905 49.5328 229.445 49.5369C229.082 49.5355 228.721 49.5929 228.377 49.7069C228.047 49.8163 227.742 49.9881 227.477 50.2129C227.212 50.4412 227.001 50.7244 226.857 51.0429C226.698 51.4013 226.62 51.79 226.627 52.1819C226.615 52.5729 226.681 52.9624 226.82 53.3279C226.935 53.6181 227.111 53.8805 227.335 54.0979C227.549 54.302 227.794 54.4707 228.061 54.5979C228.332 54.7258 228.61 54.8389 228.893 54.9369C229.178 55.0376 229.454 55.1376 229.723 55.2369C229.978 55.3299 230.221 55.451 230.449 55.5979C230.68 55.7409 230.868 55.9439 230.993 56.1854C231.118 56.4269 231.174 56.6977 231.157 56.9689C231.162 57.238 231.109 57.5049 231.002 57.7519C230.903 57.9764 230.76 58.1783 230.58 58.3449C230.398 58.5118 230.184 58.6413 229.952 58.7259C229.707 58.8182 229.446 58.8647 229.184 58.8629C228.773 58.8695 228.368 58.7659 228.011 58.5629C227.65 58.3449 227.359 58.0276 227.173 57.6489L226.398 58.2229Z" fill="#808080"/>
<path d="M215.784 49.129H214.815V59.683H215.784V49.129Z" fill="#808080"/>
<path d="M197.101 59.436H197.92V54.86H202.837V59.4409H203.656V49.787H202.837V54.041H197.921V49.787H197.102L197.101 59.436ZM191.055 59.436H191.874V50.601H194.874V49.782H188.051V50.601H191.051L191.055 59.436ZM183.171 59.436H188.088V58.618H183.988V49.7809H183.171V59.436ZM178.864 56.054H174.828L176.877 50.763L178.864 56.054ZM172.657 59.436H173.513L174.506 56.8719H179.161L180.117 59.436H181.035L177.335 49.782H176.492L172.657 59.436ZM165.567 59.436H171.142V58.618H166.386V54.86H170.658V54.041H166.386V50.606H170.943V49.787H165.566L165.567 59.436ZM155.736 59.436H156.555V54.86H161.471V59.4409H162.29V49.787H161.471V54.041H156.554V49.787H155.735L155.736 59.436Z" fill="#808080"/>
<path d="M144.575 49.129H143.606V59.683H144.575V49.129Z" fill="#808080"/>
<path d="M127.493 59.437H133.067V58.619H128.312V54.856H132.583V54.037H128.312V50.6019H132.867V49.7829H127.493V59.437ZM115.499 59.437H116.318V50.929H116.344L119.744 59.437H120.104L123.457 50.929H123.481V59.437H124.3V49.7829H123.135L119.935 57.8829L116.735 49.7829H115.505L115.499 59.437ZM104.872 52.937C105.033 52.444 105.286 51.9862 105.618 51.588C105.938 51.2062 106.338 50.899 106.79 50.688C107.277 50.4712 107.803 50.3593 108.336 50.3593C108.869 50.3593 109.395 50.4712 109.882 50.688C110.334 50.8991 110.734 51.2062 111.055 51.588C111.387 51.9858 111.64 52.4437 111.8 52.937C112.148 54.0279 112.148 55.2 111.8 56.291C111.64 56.7848 111.387 57.2434 111.055 57.642C110.733 58.0226 110.333 58.3296 109.882 58.5419C109.395 58.7574 108.868 58.8688 108.336 58.8688C107.804 58.8688 107.277 58.7574 106.79 58.5419C106.339 58.3296 105.939 58.0227 105.618 57.642C105.286 57.243 105.033 56.7845 104.872 56.291C104.527 55.1996 104.527 54.0283 104.872 52.937ZM104.127 56.653C104.333 57.2435 104.649 57.7898 105.058 58.263C105.455 58.7116 105.944 59.0693 106.492 59.312C107.075 59.5589 107.702 59.6862 108.336 59.6862C108.969 59.6862 109.596 59.5589 110.179 59.312C110.727 59.0703 111.217 58.7123 111.613 58.263C112.023 57.7907 112.339 57.2442 112.544 56.653C112.992 55.3332 112.992 53.9027 112.544 52.5829C112.338 51.9953 112.022 51.4522 111.613 50.983C111.216 50.5327 110.727 50.1724 110.179 49.9259C109.597 49.6742 108.97 49.5444 108.336 49.5444C107.701 49.5444 107.074 49.6742 106.492 49.9259C105.945 50.1733 105.456 50.5335 105.058 50.983C104.65 51.4531 104.334 51.9959 104.127 52.5829C103.682 53.9031 103.682 55.3328 104.127 56.653ZM94.527 59.442H95.353V54.8609H100.27V59.442H101.089V49.7879H100.27V54.0419H95.353V49.7879H94.534L94.527 59.442Z" fill="#808080"/>
</g>
<defs>
<clipPath id="clip0">
<rect width="331.575" height="70.6" fill="white"/>
</clipPath>
</defs>
</svg>
