<svg width="119" height="52" viewBox="0 0 119 52" fill="none" xmlns="http://www.w3.org/2000/svg">
<path d="M96.7238 2.25115C97.4989 1.7728 98.3289 1.57083 99.1451 1.30296C102.116 0.327131 104.556 1.83658 106.755 4.00296C110.828 8.01576 111.802 14.8986 109.264 20.8323C108.639 22.296 107.829 23.5843 106.926 24.8015C106.506 25.368 106.03 25.5317 105.413 25.486C105.879 24.4443 106.304 23.409 106.604 22.3066C107.904 17.5476 107.822 12.8875 105.69 8.52068C103.733 4.51213 100.781 2.44674 96.9984 2.25221C96.9069 2.2469 96.8153 2.25115 96.7238 2.25115Z" fill="#8B8B8B"/>
<path d="M102.67 25.6086C101.491 25.6012 100.358 25.5321 99.2312 25.329C96.5103 24.839 93.9452 23.8078 91.6419 21.9018C90.189 20.6985 88.9621 19.2177 88.1321 17.2777C87.8566 16.6345 87.8541 16.6228 88.3897 16.4081C92.0423 14.9454 95.3818 15.7788 98.4303 18.5809C100.287 20.2881 101.964 23.0977 102.67 25.6086Z" fill="#8B8B8B"/>
<path d="M88.7468 11.2242C88.9453 10.1696 89.2773 9.27988 89.6889 8.43159C89.7753 8.25407 89.8959 8.16052 90.0465 8.08186C96.5355 4.70888 103.374 8.90464 104.992 17.4726C105.463 19.9633 105.431 22.455 104.979 24.9404C104.931 25.204 104.986 25.6345 104.568 25.5697C104.194 25.5123 104.344 25.1445 104.316 24.9095C103.717 19.6869 101.84 15.4125 98.2116 12.5296C95.3633 10.2664 92.2831 9.79864 89.0497 11.1062C88.971 11.1381 88.8906 11.1678 88.7468 11.2242Z" fill="#8B8B8B"/>
<path d="M107.892 24.9091C108.532 24.2521 109.187 23.6388 109.777 22.9298C111.912 20.3626 113.314 17.297 113.684 13.6115C114.098 9.47012 113.12 5.85274 110.794 2.81895C110.725 2.72966 110.657 2.63931 110.585 2.54576C110.61 2.52982 110.634 2.50112 110.647 2.5075C112.836 3.59069 114.798 5.08845 116.28 7.41428C118.688 11.1943 118.556 15.8321 115.958 19.4166C114.047 22.0539 111.608 23.5814 108.916 24.5742C108.578 24.6986 108.233 24.7975 107.892 24.9091Z" fill="#8B8B8B"/>
<path d="M101.644 29.9535C101.645 29.5475 101.556 29.4624 101.243 29.4656C98.9613 29.4826 96.6802 29.4869 94.3983 29.4624C94.0227 29.4582 93.9217 29.5687 93.9337 30.0396C93.9637 31.2663 93.944 32.4951 93.944 33.8728C93.1679 32.2049 92.0402 31.3365 90.7525 30.7231C88.8368 29.8121 86.8295 29.5166 84.8043 29.4911C80.8548 29.4422 76.9044 29.4794 72.954 29.4667C72.6572 29.4656 72.569 29.5592 72.5742 29.9344C72.5921 31.2982 72.5836 32.6631 72.5776 34.0269C72.5767 34.147 72.6477 34.3129 72.4937 34.3926C70.6268 31.7585 68.2045 30.3468 65.5179 29.5889C61.2835 28.3952 57.0319 28.5025 52.8018 29.6166C50.3017 30.2756 47.9564 31.4226 45.9765 33.5199C45.9517 33.5454 45.9038 33.5369 45.855 33.5475C45.855 32.3591 45.8388 31.1898 45.8636 30.0216C45.8721 29.5953 45.802 29.4624 45.4315 29.4635C40.0694 29.4805 34.7081 29.4794 29.346 29.4656C29.002 29.4646 28.8968 29.5464 28.8985 30.0035C28.9139 34.8401 28.9079 39.6767 28.9079 44.5134C28.9079 44.7036 28.9079 44.8939 28.9079 45.2394C28.7231 44.8982 28.6093 44.6951 28.5015 44.4878C25.9594 39.6236 23.4157 34.7614 20.8797 29.8919C20.7274 29.5985 20.5742 29.4645 20.2764 29.4667C17.7378 29.4847 15.2001 29.4816 12.6615 29.4699C12.3979 29.4688 12.2277 29.54 12.0711 29.8345C8.44415 36.6493 4.80865 43.4578 1.17828 50.2695C1.10555 50.4055 0.973784 50.5193 1.00459 50.7383C3.61849 50.7383 6.22811 50.7351 8.83688 50.7446C9.04565 50.7457 9.13806 50.6128 9.23731 50.43C9.78832 49.4201 10.3505 48.4177 10.8955 47.4026C11.0341 47.1453 11.1778 47.021 11.4431 47.021C14.7372 47.0337 18.0313 47.0337 21.3254 47.021C21.5915 47.0199 21.7361 47.139 21.8696 47.4036C22.3684 48.3922 22.8929 49.3617 23.384 50.3566C23.5303 50.6532 23.6912 50.7468 23.9659 50.7457C28.03 50.734 32.0942 50.7329 36.1584 50.7468C36.4869 50.7478 36.5879 50.6543 36.5853 50.227C36.5682 47.7651 36.5785 45.3021 36.5742 42.8391C36.5733 42.5638 36.5767 42.3736 36.8788 42.3757C39.0461 42.3895 41.2142 42.3852 43.3814 42.3789C43.5705 42.3778 43.6552 42.4618 43.7134 42.685C44.2952 44.8886 45.4957 46.482 47.011 47.7385C49.3083 49.6423 51.8948 50.5629 54.5926 51.0423C57.5718 51.5716 60.5596 51.577 63.5414 51.0529C65.7677 50.6617 67.9042 49.9049 69.8661 48.4943C70.8544 47.7842 71.7356 46.9051 72.5108 45.8347C72.6238 46.0366 72.5784 46.2163 72.5793 46.3821C72.5836 47.6396 72.5973 48.8982 72.5733 50.1557C72.5647 50.6001 72.6306 50.7553 73.0293 50.7499C75.2967 50.7212 77.5641 50.7234 79.8315 50.7489C80.2062 50.7531 80.2644 50.6075 80.261 50.1866C80.2447 47.8129 80.2516 45.4382 80.2567 43.0645C80.2567 42.9061 80.1865 42.718 80.3294 42.5691C80.4005 42.6404 80.4689 42.702 80.5314 42.7732C82.7893 45.3234 85.0481 47.8703 87.2993 50.4289C87.4909 50.6468 87.6749 50.7446 87.9376 50.7436C92.3722 50.7319 96.8077 50.7298 101.242 50.7414C101.554 50.7425 101.644 50.6628 101.643 50.2546C101.632 43.4897 101.632 36.7216 101.644 29.9535ZM13.2202 42.8094C14.288 40.5271 15.3301 38.2991 16.4245 35.9605C17.494 38.2693 18.5276 40.5027 19.5962 42.8094C17.4444 42.8094 15.3789 42.8094 13.2202 42.8094ZM43.7605 37.4848C43.7032 37.6964 43.5859 37.7219 43.4302 37.7208C41.2527 37.7166 39.0743 37.7144 36.8967 37.723C36.6649 37.724 36.5665 37.6549 36.5716 37.3403C36.5862 36.4038 36.5862 35.4652 36.5716 34.5287C36.5665 34.2246 36.6452 34.146 36.8839 34.147C39.7023 34.1566 42.5198 34.1534 45.4341 34.1534C44.6751 35.192 44.095 36.2465 43.7605 37.4848ZM72.1549 38.8678C67.9641 38.8561 63.7742 38.8667 59.5834 38.8487C59.1975 38.8465 59.076 38.9582 59.0905 39.4535C59.1222 40.5495 59.1145 41.6497 59.0931 42.7467C59.0854 43.1272 59.1787 43.2123 59.473 43.2091C61.2689 43.1921 63.0649 43.2006 64.8608 43.2006C65.0139 43.2006 65.1671 43.2006 65.3459 43.2006C65.2039 44.2604 64.723 44.9694 64.0608 45.5179C63.3258 46.1259 62.501 46.4469 61.642 46.634C59.4456 47.1124 57.2775 47.0348 55.1684 46.0473C54.282 45.6316 53.4803 45.0289 52.8026 44.1955C50.9194 41.8782 50.8989 38.6573 52.759 36.307C53.8653 34.9092 55.2445 34.1662 56.7727 33.8026C58.6653 33.353 60.5416 33.4136 62.3795 34.1694C63.5363 34.6445 64.5528 35.4056 65.2766 36.6621C65.4178 36.9066 65.5496 36.8832 65.7421 36.8247C67.8939 36.172 70.0501 35.5427 72.1977 34.8677C72.581 34.7476 72.5904 34.9071 72.5861 35.2781C72.5724 36.3049 72.5622 37.3328 72.5904 38.3586C72.6015 38.7998 72.4715 38.8689 72.1549 38.8678ZM85.6805 37.9143C85.0559 38.4926 84.3166 38.685 83.5705 38.8189C82.5977 38.9922 81.6163 39.0187 80.6332 39.0283C80.344 39.0315 80.2328 38.9518 80.2464 38.5648C80.2713 37.8239 80.2542 37.0798 80.2542 36.3368C80.2542 35.5768 80.2593 34.8157 80.2507 34.0556C80.2482 33.8228 80.2815 33.7059 80.5023 33.707C81.8678 33.7155 83.2342 33.6857 84.5673 34.1502C84.9942 34.299 85.4015 34.5 85.7463 34.8571C86.5583 35.6979 86.5292 37.1277 85.6805 37.9143ZM93.9072 47.7077C91.8982 45.8219 89.9132 43.9585 87.876 42.0462C90.276 41.5933 92.4963 40.879 93.9072 38.1428C93.9072 41.3212 93.9072 44.4677 93.9072 47.7077Z" fill="#8B8B8B"/>
</svg>
