<?xml version="1.0" encoding="UTF-8" standalone="no"?>
<svg
   xmlns:dc="http://purl.org/dc/elements/1.1/"
   xmlns:cc="http://creativecommons.org/ns#"
   xmlns:rdf="http://www.w3.org/1999/02/22-rdf-syntax-ns#"
   xmlns:svg="http://www.w3.org/2000/svg"
   xmlns="http://www.w3.org/2000/svg"
   xmlns:sodipodi="http://sodipodi.sourceforge.net/DTD/sodipodi-0.dtd"
   xmlns:inkscape="http://www.inkscape.org/namespaces/inkscape"
   inkscape:version="1.0 (4035a4fb49, 2020-05-01)"
   sodipodi:docname="kohde-clients-showcase-trigga.svg"
   id="svg20"
   version="1.1"
   fill="none"
   viewBox="0 0 179 19.643011"
   height="23.890148"
   width="119">
  <metadata
     id="metadata26">
    <rdf:RDF>
      <cc:Work
         rdf:about="">
        <dc:format>image/svg+xml</dc:format>
        <dc:type
           rdf:resource="http://purl.org/dc/dcmitype/StillImage" />
      </cc:Work>
    </rdf:RDF>
  </metadata>
  <defs
     id="defs24" />
  <sodipodi:namedview
     inkscape:current-layer="svg20"
     inkscape:window-maximized="1"
     inkscape:window-y="-9"
     inkscape:window-x="-9"
     inkscape:cy="17.892986"
     inkscape:cx="-1.4187029"
     inkscape:zoom="30.875015"
     showgrid="false"
     id="namedview22"
     inkscape:window-height="1001"
     inkscape:window-width="1920"
     inkscape:pageshadow="2"
     inkscape:pageopacity="0"
     guidetolerance="10"
     gridtolerance="10"
     objecttolerance="10"
     borderopacity="1"
     bordercolor="#666666"
     pagecolor="#ffffff" />
  <path
     id="path2"
     fill="#8b8b8b"
     d="m 31.8674,7.3747828 0.6113,-0.5922 h 20.4744 l 0.6113,0.5922 v 4.1453002 l -0.6113,0.5922 H 42.3182 v 0.6044 l 11.2462,10.8948 v 0.8396 l -3.4584,3.3504 H 49.2392 L 37.993,16.906683 h -0.6239 v 10.3026 l -0.6113,0.5922 h -4.2791 l -0.6113,-0.5922 z" />
  <path
     id="path4"
     fill="#8b8b8b"
     d="m 21.0189,7.3747828 -0.5922,-0.5922 H 0.592197 L 0,7.3747828 v 4.1453002 l 0.592197,0.5922 H 10.8948 v 0.6044 L 0,23.611483 v 0.8396 l 3.35038,3.3504 H 4.19 l 10.8948,-10.8948 h 0.6044 v 10.3026 l 0.5922,0.5922 h 4.1453 l 0.5922,-0.5922 z" />
  <path
     id="path6"
     fill="#8b8b8b"
     d="m 0,-3.3111973 v -4.2216 l 0.60259,-0.60132 H 52.9618 l 0.6026,0.60132 v 4.2216 l -0.6026,0.6013202 H 0.60259 Z" />
  <path
     id="path8"
     fill="#8b8b8b"
     d="m 87.8535,2.8133829 h -5.8453 l -0.2945,0.2887 V 19.372283 l -0.2904,0.2928 h -3.5055 l -0.2945,-0.2928 V 3.1020829 l -0.2904,-0.2887 h -5.8452 l -0.2946,-0.2929 v -2.90344005 l 0.2946,-0.29283 h 16.3658 l 0.2904,0.29283 V 2.5204829 Z" />
  <path
     id="path10"
     fill="#8b8b8b"
     d="m 100.097,2.8133829 h -5.5505 l -0.2946,0.2887 v 4.6479999 l 0.2946,0.2928 h 5.5505 c 1.755,0 2.925,-0.5815 2.925,-2.6146999 0,-2.0333 -1.17,-2.6148 -2.925,-2.6148 z m 2.626,8.4259001 v 0.2887 l 3.8,4.9491 v 2.887 l -0.29,0.2928 h -1.755 l -0.585,-0.2928 -5.8411,-7.5433 -0.5849,-0.2928 h -2.9039 l -0.2946,0.2928 v 7.5515 l -0.2904,0.2928 h -3.5096 l -0.2904,-0.2928 V -0.38295715 l 0.2904,-0.29283 h 9.6455 c 4.094,0 7.015,2.03327005 7.015,6.10397005 0,3.1963 -2.045,5.2295001 -4.385,5.8111001" />
  <path
     id="path12"
     fill="#8b8b8b"
     d="m 114.295,20.343183 h -3.483 l -0.293,-0.3025 V -0.37332715 l 0.293,-0.30246 h 3.483 l 0.292,0.30246 V 20.040683 Z" />
  <path
     id="path14"
     fill="#8b8b8b"
     d="m 136.663,20.721783 h -2.669 l -0.298,-0.3036 -0.295,-1.5056 h -0.295 c -0.593,0.6031 -2.079,2.1086 -5.342,2.1086 -5.931,0 -9.787,-4.5207 -9.787,-10.8464 0,-6.3257001 3.856,-10.85057015 10.086,-10.85057015 5.931,0 8.305,3.32717005 8.899,6.32987005 l -0.299,0.2994 h -3.557 l -0.299,-0.2994 c -0.593,-1.2061 -1.481,-2.7158 -4.744,-2.7158 -3.856,0 -5.935,3.0152 -5.935,7.2365001 0,4.2213 2.079,7.2323 5.935,7.2323 3.275,0 4.744,-1.8091 4.744,-4.2213 l -0.294,-0.2994 h -5.043 l -0.299,-0.3036 V 9.5717829 l 0.299,-0.3036 h 9.193 l 0.299,0.3036 V 20.418183 Z" />
  <path
     id="path16"
     fill="#8b8b8b"
     d="m 157.015,20.053083 h -2.574 l -0.289,-0.2942 -0.284,-1.4588 h -0.284 c -0.572,0.5843 -2.006,2.0431 -5.148,2.0431 -5.725,0 -9.44,-4.3804 -9.44,-10.5095001 0,-6.1291 3.715,-10.50947005 9.724,-10.50947005 5.721,0 8.011,3.21167005 8.579,6.12917005 l -0.284,0.2942 h -3.431 l -0.276,-0.2942 c -0.573,-1.1687 -1.429,-2.6274 -4.576,-2.6274 -3.719,0 -5.72,2.9009 -5.72,7.0077 0,4.1068001 2.001,7.0077001 5.72,7.0077001 3.147,0 4.576,-1.753 4.576,-4.0902 l -0.284,-0.2901 h -4.872 l -0.285,-0.2901 V 9.2700829 l 0.285,-0.2901 h 8.867 l 0.284,0.2901 V 19.779583 Z" />
  <path
     id="path18"
     fill="#8b8b8b"
     d="m 170.004,4.7219829 h -0.298 l -2.701,7.2095001 0.303,0.3026 h 5.102 l 0.299,-0.2985 z m 8.698,15.6212001 h -2.697 l -0.302,-0.3027 -1.499,-3.9053 -0.601,-0.2985 h -7.501 l -0.6,0.2985 -1.508,3.9053 -0.298,0.3027 h -2.705 l -0.298,-0.3027 v -3.0015 l 6.905,-17.41213015 0.298,-0.30264 h 3.901 l 0.303,0.30264 6.9,17.41213015 v 3.0015 z" />
</svg>
