<?xml version="1.0" encoding="UTF-8"?>
<!DOCTYPE svg PUBLIC "-//W3C//DTD SVG 1.1//EN"
"http://www.w3.org/Graphics/SVG/1.1/DTD/svg11.dtd">
<svg width="89" height="20" viewBox="0 0 89 20" fill="none" xmlns="http://www.w3.org/2000/svg" version="1.1">
<path d="M15.1149 5.50034V6.75927L8.6584 12.5176L15.1168 18.2777V19.5366H10.6423L4.5433 14.3814H4.13474V19.5366H0V0.902466H4.1367V10.6538H4.54527L10.6443 5.50034H15.1149Z" fill="#3F3F3F"/>
<path d="M29.6681 5.50037C31.8307 5.50037 33.5887 7.09688 33.5887 9.00988V16.0271C33.5887 17.9384 31.8307 19.5366 29.6681 19.5366H21.6127C19.4776 19.5366 17.6921 17.9401 17.6921 16.0271V9.00988C17.6921 7.09864 19.4756 5.50037 21.6127 5.50037H29.6681ZM21.8288 15.8337H29.452V9.20329H21.8288V15.8337Z" fill="#3F3F3F"/>
<path d="M52.0664 9.00985V19.5366H47.9297V9.20326H40.3064V19.5366H36.1697V0.902466H40.3064V5.50034H48.1457C50.2828 5.50034 52.0664 7.09685 52.0664 9.00985Z" fill="#3F3F3F"/>
<path d="M70.5518 0.902466V19.5349H58.5483C56.3857 19.5349 54.6277 17.9384 54.6277 16.0254V9.00985C54.6277 7.09861 56.3857 5.50034 58.5483 5.50034H66.4151V0.902466H70.5518ZM58.7919 15.8337H66.4151V9.20326H58.7919V15.8337Z" fill="#3F3F3F"/>
<path d="M89 9.00988V14.3814H77.24V15.8337H89V19.5366H77.024C74.8888 19.5366 73.1033 17.9401 73.1033 16.0271V9.00988C73.1033 7.09864 74.8869 5.50037 77.024 5.50037H85.0793C87.2439 5.50037 89 7.09688 89 9.00988ZM84.8633 11.1391V9.20329H77.24V11.1391H84.8633Z" fill="#3F3F3F"/>
</svg>