<svg id="Layer_1" data-name="Layer 1" xmlns="http://www.w3.org/2000/svg" viewBox="0 0 100 21"><defs><style>.cls-1{fill:#fff;}</style></defs><title>phone-numbers</title><path class="cls-1" d="M8.73,7.64v2.82h2.71v0.72H8.73V14H8V11.18H5.25V10.46H8V7.64H8.73Z"/><path class="cls-1" d="M12.46,14V13.37l0.83-.8c2-1.9,2.89-2.9,2.9-4.08A1.39,1.39,0,0,0,14.65,7,2.65,2.65,0,0,0,13,7.63l-0.34-.74a3.42,3.42,0,0,1,2.21-.79,2.19,2.19,0,0,1,2.39,2.27c0,1.44-1,2.6-2.69,4.19l-0.62.58v0h3.5V14h-5Z"/><path class="cls-1" d="M23.68,6.23v0.7L20.29,14H19.2l3.38-6.9v0H18.76V6.23h4.92Z"/><path class="cls-1" d="M29.95,5.7a7.91,7.91,0,0,0-1.51,4.91,8.08,8.08,0,0,0,1.51,4.87H29.12a7.75,7.75,0,0,1-1.57-4.87A7.91,7.91,0,0,1,29.12,5.7h0.83Z"/><path class="cls-1" d="M30.63,12A2.23,2.23,0,0,1,32.18,10v0a1.93,1.93,0,0,1-1.24-1.75,2.18,2.18,0,0,1,2.41-2.07A2,2,0,0,1,35.61,8a2,2,0,0,1-1.28,1.82v0a2.16,2.16,0,0,1,1.57,2,2.4,2.4,0,0,1-2.65,2.27C31.62,14.15,30.63,13.18,30.63,12Zm4.2,0c0-.95-0.66-1.4-1.71-1.7a1.69,1.69,0,0,0-1.4,1.61,1.44,1.44,0,0,0,1.56,1.49A1.41,1.41,0,0,0,34.83,12Zm-2.9-3.9c0,0.78.59,1.2,1.49,1.44A1.54,1.54,0,0,0,34.6,8.12a1.21,1.21,0,0,0-1.32-1.27A1.24,1.24,0,0,0,31.93,8.1Z"/><path class="cls-1" d="M36.88,14V13.37l0.83-.8c2-1.9,2.89-2.9,2.9-4.08A1.39,1.39,0,0,0,39.07,7a2.65,2.65,0,0,0-1.66.66l-0.34-.74a3.42,3.42,0,0,1,2.21-.79,2.19,2.19,0,0,1,2.39,2.27c0,1.44-1,2.6-2.69,4.19l-0.62.58v0h3.5V14h-5Z"/><path class="cls-1" d="M42.74,15.47a8.12,8.12,0,0,0,1.51-4.91A8,8,0,0,0,42.74,5.7h0.82a7.64,7.64,0,0,1,1.57,4.88,7.79,7.79,0,0,1-1.57,4.89H42.74Z"/><path class="cls-1" d="M53.65,7.11h-3l-0.3,2a4.17,4.17,0,0,1,.64,0,3.3,3.3,0,0,1,1.68.42,2.22,2.22,0,0,1,1.12,2,2.7,2.7,0,0,1-2.9,2.66A3.82,3.82,0,0,1,49,13.67l0.26-.8a3.49,3.49,0,0,0,1.67.43,1.72,1.72,0,0,0,1.85-1.69c0-1-.68-1.73-2.24-1.73a8,8,0,0,0-1.08.08l0.5-3.74h3.73V7.11Z"/><path class="cls-1" d="M59.6,7a3.84,3.84,0,0,0-.79,0,3.17,3.17,0,0,0-2.71,2.77h0a2.38,2.38,0,0,1,4.23,1.62,2.61,2.61,0,0,1-2.59,2.75c-1.67,0-2.76-1.3-2.76-3.32a4.9,4.9,0,0,1,1.32-3.51,4.25,4.25,0,0,1,2.5-1.15,5,5,0,0,1,.77-0.06V7Zm-0.3,4.5a1.58,1.58,0,0,0-1.61-1.79,1.74,1.74,0,0,0-1.51,1,0.9,0.9,0,0,0-.12.47c0,1.28.61,2.23,1.71,2.23A1.63,1.63,0,0,0,59.3,11.47Z"/><path class="cls-1" d="M64.57,14V11.9H60.94V11.2l3.48-5h1.14v4.85h1.09V11.9H65.56V14h-1Zm0-3V8.47q0-.61,0-1.22h0C64.33,7.7,64.13,8,63.92,8.4L62,11v0h2.55Z"/><path class="cls-1" d="M70.24,10.39v0.78h-3V10.39h3Z"/><path class="cls-1" d="M75.8,7.11h-3l-0.3,2a4.17,4.17,0,0,1,.64,0,3.3,3.3,0,0,1,1.68.42,2.22,2.22,0,0,1,1.12,2A2.7,2.7,0,0,1,73,14.15a3.82,3.82,0,0,1-1.94-.48l0.26-.8A3.49,3.49,0,0,0,73,13.3a1.72,1.72,0,0,0,1.85-1.69c0-1-.68-1.73-2.24-1.73a8,8,0,0,0-1.08.08l0.5-3.74H75.8V7.11Z"/><path class="cls-1" d="M80.56,14V11.9H76.94V11.2l3.48-5h1.14v4.85h1.09V11.9H81.56V14h-1Zm0-3V8.47q0-.61,0-1.22h0C80.32,7.7,80.13,8,79.91,8.4L78,11v0h2.55Z"/><path class="cls-1" d="M86.72,14V11.9H83.09V11.2l3.48-5h1.14v4.85H88.8V11.9H87.71V14h-1Zm0-3V8.47q0-.61,0-1.22h0C86.48,7.7,86.29,8,86.07,8.4L84.16,11v0h2.55Z"/><path class="cls-1" d="M89.51,12A2.23,2.23,0,0,1,91.06,10v0a1.93,1.93,0,0,1-1.24-1.75,2.18,2.18,0,0,1,2.41-2.07A2,2,0,0,1,94.49,8a2,2,0,0,1-1.28,1.82v0a2.16,2.16,0,0,1,1.57,2,2.4,2.4,0,0,1-2.65,2.27C90.5,14.15,89.51,13.18,89.51,12Zm4.2,0c0-.95-0.66-1.4-1.71-1.7a1.69,1.69,0,0,0-1.4,1.61,1.44,1.44,0,0,0,1.56,1.49A1.41,1.41,0,0,0,93.71,12Zm-2.9-3.9c0,0.78.59,1.2,1.49,1.44a1.54,1.54,0,0,0,1.19-1.42,1.21,1.21,0,0,0-1.32-1.27A1.24,1.24,0,0,0,90.81,8.1Z"/></svg>