<svg width="91" height="12" viewBox="0 0 91 12" fill="none" xmlns="http://www.w3.org/2000/svg">
<path d="M2.75537 7.72705V5.56787H0.612305V4.66553H2.75537V2.52246H3.66846V4.66553H5.81152V5.56787H3.66846V7.72705H2.75537ZM11.9614 8.0708V9H6.75684C6.74967 8.76725 6.78727 8.54346 6.86963 8.32861C7.00212 7.97412 7.21338 7.625 7.50342 7.28125C7.79704 6.9375 8.21956 6.54004 8.771 6.08887C9.62679 5.38704 10.2051 4.83203 10.5059 4.42383C10.8066 4.01204 10.957 3.62354 10.957 3.2583C10.957 2.87516 10.8192 2.5529 10.5435 2.2915C10.2713 2.02653 9.91504 1.89404 9.47461 1.89404C9.00911 1.89404 8.63672 2.03369 8.35742 2.31299C8.07812 2.59229 7.93669 2.979 7.93311 3.47314L6.93945 3.37109C7.00749 2.62988 7.26351 2.06592 7.70752 1.6792C8.15153 1.2889 8.74772 1.09375 9.49609 1.09375C10.2516 1.09375 10.8496 1.30322 11.29 1.72217C11.7305 2.14111 11.9507 2.66032 11.9507 3.27979C11.9507 3.59489 11.8862 3.90462 11.7573 4.20898C11.6284 4.51335 11.4136 4.83382 11.1128 5.17041C10.8156 5.507 10.3197 5.96891 9.625 6.55615C9.04492 7.04313 8.67253 7.37435 8.50781 7.5498C8.3431 7.72168 8.20703 7.89535 8.09961 8.0708H11.9614ZM13.0679 2.15723V1.22803H18.165V1.97998C17.6637 2.51351 17.166 3.22249 16.6719 4.10693C16.1813 4.99137 15.8018 5.90088 15.5332 6.83545C15.3398 7.4943 15.2163 8.21582 15.1626 9H14.1689C14.1797 8.38053 14.3014 7.63216 14.5342 6.75488C14.7669 5.8776 15.0999 5.03255 15.5332 4.21973C15.9701 3.40332 16.4338 2.71582 16.9243 2.15723H13.0679ZM24.3042 11.3149C23.7707 10.6418 23.3195 9.854 22.9507 8.95166C22.5819 8.04932 22.3975 7.11475 22.3975 6.14795C22.3975 5.29574 22.5353 4.47933 22.811 3.69873C23.1333 2.79281 23.631 1.89046 24.3042 0.991699H24.9971C24.5638 1.73649 24.2773 2.26823 24.1377 2.58691C23.9193 3.08105 23.7474 3.59668 23.6221 4.13379C23.4681 4.80339 23.3911 5.47656 23.3911 6.15332C23.3911 7.87565 23.9264 9.59619 24.9971 11.3149H24.3042ZM27.3389 4.72998C26.9378 4.58317 26.6406 4.3737 26.4473 4.10156C26.2539 3.82943 26.1572 3.50358 26.1572 3.12402C26.1572 2.55111 26.3631 2.0695 26.7749 1.6792C27.1867 1.2889 27.7345 1.09375 28.4185 1.09375C29.106 1.09375 29.6592 1.29427 30.0781 1.69531C30.4971 2.09277 30.7065 2.57796 30.7065 3.15088C30.7065 3.51611 30.6099 3.8348 30.4165 4.10693C30.2267 4.37549 29.9367 4.58317 29.5464 4.72998C30.0298 4.88753 30.3968 5.14176 30.6475 5.49268C30.9017 5.84359 31.0288 6.26253 31.0288 6.74951C31.0288 7.42269 30.7907 7.98844 30.3145 8.44678C29.8382 8.90511 29.2116 9.13428 28.4346 9.13428C27.6576 9.13428 27.0309 8.90511 26.5547 8.44678C26.0785 7.98486 25.8403 7.41016 25.8403 6.72266C25.8403 6.21061 25.9692 5.78271 26.2271 5.43896C26.4884 5.09163 26.859 4.85531 27.3389 4.72998ZM27.1455 3.0918C27.1455 3.46419 27.2655 3.76855 27.5054 4.00488C27.7453 4.24121 28.0568 4.35938 28.4399 4.35938C28.8123 4.35938 29.1167 4.243 29.353 4.01025C29.5929 3.77393 29.7129 3.48568 29.7129 3.14551C29.7129 2.79102 29.5894 2.49382 29.3423 2.25391C29.0988 2.01042 28.7944 1.88867 28.4292 1.88867C28.0604 1.88867 27.7542 2.00684 27.5107 2.24316C27.2673 2.47949 27.1455 2.76237 27.1455 3.0918ZM26.834 6.72803C26.834 7.00374 26.8984 7.27051 27.0273 7.52832C27.1598 7.78613 27.355 7.98665 27.6128 8.12988C27.8706 8.26953 28.1481 8.33936 28.4453 8.33936C28.9072 8.33936 29.2886 8.19076 29.5894 7.89355C29.8901 7.59635 30.0405 7.21859 30.0405 6.76025C30.0405 6.29476 29.8848 5.90983 29.5732 5.60547C29.2653 5.30111 28.8786 5.14893 28.4131 5.14893C27.9583 5.14893 27.5806 5.29932 27.2798 5.6001C26.9826 5.90088 26.834 6.27686 26.834 6.72803ZM37.0552 8.0708V9H31.8506C31.8434 8.76725 31.881 8.54346 31.9634 8.32861C32.0959 7.97412 32.3071 7.625 32.5972 7.28125C32.8908 6.9375 33.3133 6.54004 33.8647 6.08887C34.7205 5.38704 35.2988 4.83203 35.5996 4.42383C35.9004 4.01204 36.0508 3.62354 36.0508 3.2583C36.0508 2.87516 35.9129 2.5529 35.6372 2.2915C35.3651 2.02653 35.0088 1.89404 34.5684 1.89404C34.1029 1.89404 33.7305 2.03369 33.4512 2.31299C33.1719 2.59229 33.0304 2.979 33.0269 3.47314L32.0332 3.37109C32.1012 2.62988 32.3573 2.06592 32.8013 1.6792C33.2453 1.2889 33.8415 1.09375 34.5898 1.09375C35.3454 1.09375 35.9434 1.30322 36.3838 1.72217C36.8242 2.14111 37.0444 2.66032 37.0444 3.27979C37.0444 3.59489 36.98 3.90462 36.8511 4.20898C36.7222 4.51335 36.5073 4.83382 36.2065 5.17041C35.9093 5.507 35.4134 5.96891 34.7188 6.55615C34.1387 7.04313 33.7663 7.37435 33.6016 7.5498C33.4368 7.72168 33.3008 7.89535 33.1934 8.0708H37.0552ZM38.9995 11.3149H38.3066C39.3773 9.59619 39.9126 7.87565 39.9126 6.15332C39.9126 5.48014 39.8356 4.81234 39.6816 4.1499C39.5599 3.61279 39.3898 3.09717 39.1714 2.60303C39.0317 2.28076 38.7435 1.74365 38.3066 0.991699H38.9995C39.6727 1.89046 40.1704 2.79281 40.4927 3.69873C40.7684 4.47933 40.9062 5.29574 40.9062 6.14795C40.9062 7.11475 40.7201 8.04932 40.3477 8.95166C39.9788 9.854 39.5295 10.6418 38.9995 11.3149ZM44.8862 2.15723V1.22803H49.9834V1.97998C49.4821 2.51351 48.9844 3.22249 48.4902 4.10693C47.9997 4.99137 47.6201 5.90088 47.3516 6.83545C47.1582 7.4943 47.0347 8.21582 46.981 9H45.9873C45.998 8.38053 46.1198 7.63216 46.3525 6.75488C46.5853 5.8776 46.9183 5.03255 47.3516 4.21973C47.7884 3.40332 48.2521 2.71582 48.7427 2.15723H44.8862ZM52.4326 4.72998C52.0316 4.58317 51.7344 4.3737 51.541 4.10156C51.3477 3.82943 51.251 3.50358 51.251 3.12402C51.251 2.55111 51.4569 2.0695 51.8687 1.6792C52.2804 1.2889 52.8283 1.09375 53.5122 1.09375C54.1997 1.09375 54.7529 1.29427 55.1719 1.69531C55.5908 2.09277 55.8003 2.57796 55.8003 3.15088C55.8003 3.51611 55.7036 3.8348 55.5103 4.10693C55.3205 4.37549 55.0304 4.58317 54.6401 4.72998C55.1235 4.88753 55.4906 5.14176 55.7412 5.49268C55.9954 5.84359 56.1226 6.26253 56.1226 6.74951C56.1226 7.42269 55.8844 7.98844 55.4082 8.44678C54.932 8.90511 54.3053 9.13428 53.5283 9.13428C52.7513 9.13428 52.1247 8.90511 51.6484 8.44678C51.1722 7.98486 50.9341 7.41016 50.9341 6.72266C50.9341 6.21061 51.063 5.78271 51.3208 5.43896C51.5822 5.09163 51.9528 4.85531 52.4326 4.72998ZM52.2393 3.0918C52.2393 3.46419 52.3592 3.76855 52.5991 4.00488C52.839 4.24121 53.1506 4.35938 53.5337 4.35938C53.9061 4.35938 54.2104 4.243 54.4468 4.01025C54.6867 3.77393 54.8066 3.48568 54.8066 3.14551C54.8066 2.79102 54.6831 2.49382 54.436 2.25391C54.1925 2.01042 53.8882 1.88867 53.5229 1.88867C53.1541 1.88867 52.848 2.00684 52.6045 2.24316C52.361 2.47949 52.2393 2.76237 52.2393 3.0918ZM51.9277 6.72803C51.9277 7.00374 51.9922 7.27051 52.1211 7.52832C52.2536 7.78613 52.4487 7.98665 52.7065 8.12988C52.9644 8.26953 53.2419 8.33936 53.5391 8.33936C54.001 8.33936 54.3823 8.19076 54.6831 7.89355C54.9839 7.59635 55.1343 7.21859 55.1343 6.76025C55.1343 6.29476 54.9785 5.90983 54.667 5.60547C54.359 5.30111 53.9723 5.14893 53.5068 5.14893C53.0521 5.14893 52.6743 5.29932 52.3735 5.6001C52.0763 5.90088 51.9277 6.27686 51.9277 6.72803ZM60.167 9V7.11475H56.751V6.22852L60.3442 1.12598H61.1338V6.22852H62.1973V7.11475H61.1338V9H60.167ZM60.167 6.22852V2.67822L57.7017 6.22852H60.167ZM63.0835 6.63672V5.66455H66.0537V6.63672H63.0835ZM66.8594 6.92139L67.8262 6.79248C67.9372 7.34033 68.1252 7.736 68.3901 7.97949C68.6587 8.2194 68.9845 8.33936 69.3677 8.33936C69.8224 8.33936 70.2056 8.1818 70.5171 7.8667C70.8322 7.5516 70.9897 7.1613 70.9897 6.6958C70.9897 6.25179 70.8447 5.88656 70.5547 5.6001C70.2646 5.31006 69.8958 5.16504 69.4482 5.16504C69.2656 5.16504 69.0382 5.20085 68.7661 5.27246L68.8735 4.42383C68.938 4.43099 68.9899 4.43457 69.0293 4.43457C69.4411 4.43457 69.8117 4.32715 70.1411 4.1123C70.4705 3.89746 70.6353 3.56624 70.6353 3.11865C70.6353 2.76416 70.5153 2.47054 70.2754 2.23779C70.0355 2.00505 69.7257 1.88867 69.3462 1.88867C68.9702 1.88867 68.6569 2.00684 68.4062 2.24316C68.1556 2.47949 67.9945 2.83398 67.9229 3.30664L66.9561 3.13477C67.0742 2.48665 67.3428 1.98535 67.7617 1.63086C68.1807 1.27279 68.7017 1.09375 69.3247 1.09375C69.7544 1.09375 70.1501 1.18685 70.5117 1.37305C70.8734 1.55566 71.1491 1.80632 71.3389 2.125C71.5322 2.44368 71.6289 2.78206 71.6289 3.14014C71.6289 3.48031 71.5376 3.79004 71.355 4.06934C71.1724 4.34863 70.902 4.57064 70.5439 4.73535C71.0094 4.84277 71.3711 5.06657 71.6289 5.40674C71.8867 5.74333 72.0156 6.16585 72.0156 6.67432C72.0156 7.36182 71.765 7.94548 71.2637 8.42529C70.7624 8.90153 70.1286 9.13965 69.3623 9.13965C68.6712 9.13965 68.0965 8.93376 67.6382 8.52197C67.1834 8.11019 66.9238 7.57666 66.8594 6.92139ZM76.0762 9V7.11475H72.6602V6.22852L76.2534 1.12598H77.043V6.22852H78.1064V7.11475H77.043V9H76.0762ZM76.0762 6.22852V2.67822L73.6108 6.22852H76.0762ZM84.1812 8.0708V9H78.9766C78.9694 8.76725 79.007 8.54346 79.0894 8.32861C79.2218 7.97412 79.4331 7.625 79.7231 7.28125C80.0168 6.9375 80.4393 6.54004 80.9907 6.08887C81.8465 5.38704 82.4248 4.83203 82.7256 4.42383C83.0264 4.01204 83.1768 3.62354 83.1768 3.2583C83.1768 2.87516 83.0389 2.5529 82.7632 2.2915C82.491 2.02653 82.1348 1.89404 81.6943 1.89404C81.2288 1.89404 80.8564 2.03369 80.5771 2.31299C80.2979 2.59229 80.1564 2.979 80.1528 3.47314L79.1592 3.37109C79.2272 2.62988 79.4832 2.06592 79.9272 1.6792C80.3713 1.2889 80.9674 1.09375 81.7158 1.09375C82.4714 1.09375 83.0693 1.30322 83.5098 1.72217C83.9502 2.14111 84.1704 2.66032 84.1704 3.27979C84.1704 3.59489 84.106 3.90462 83.9771 4.20898C83.8481 4.51335 83.6333 4.83382 83.3325 5.17041C83.0353 5.507 82.5394 5.96891 81.8447 6.55615C81.2646 7.04313 80.8923 7.37435 80.7275 7.5498C80.5628 7.72168 80.4268 7.89535 80.3193 8.0708H84.1812ZM85.2231 6.9375L86.2383 6.85156C86.3135 7.3457 86.4871 7.7181 86.7593 7.96875C87.035 8.21582 87.3662 8.33936 87.7529 8.33936C88.2184 8.33936 88.6123 8.1639 88.9346 7.81299C89.2568 7.46208 89.418 6.99658 89.418 6.4165C89.418 5.86507 89.2622 5.43001 88.9507 5.11133C88.6427 4.79264 88.2381 4.6333 87.7368 4.6333C87.4253 4.6333 87.1442 4.70492 86.8936 4.84814C86.6429 4.98779 86.446 5.17041 86.3027 5.396L85.395 5.27783L86.1577 1.2334H90.0732V2.15723H86.9312L86.5068 4.27344C86.9795 3.94401 87.4754 3.7793 87.9946 3.7793C88.6821 3.7793 89.2622 4.01742 89.7349 4.49365C90.2075 4.96989 90.4438 5.58219 90.4438 6.33057C90.4438 7.04313 90.2362 7.65902 89.8208 8.17822C89.3159 8.81559 88.6266 9.13428 87.7529 9.13428C87.0368 9.13428 86.4513 8.93376 85.9966 8.53271C85.5454 8.13167 85.2876 7.59993 85.2231 6.9375Z" fill="white"/>
</svg>
